<svg xmlns="http://www.w3.org/2000/svg" width="770" height="362" viewBox="0 0 770 362"><title>Tentacles</title><path d="M4 360.46c0-.847-.848-3.21-1.884-5.25C.23 351.5.23 351.5 3.894 339 11.61 312.67 20.852 300.088 34 298.012c4.125-.65 10.2-1.883 13.5-2.738 15.202-3.936 36.662 2.34 49.764 14.554 5.012 4.672 5.012 4.672 4.484-5.328-.33-6.246-1.335-12.44-2.675-16.5-3.076-9.31-3.67-19.057-1.634-26.83.91-3.48 2.06-13.44 2.55-22.132 1.75-30.646 10.25-41.872 36.67-48.41 5.48-1.354 14.15-4.35 19.27-6.654 34.12-15.368 73.19 7.622 119.41 70.268 11.25 15.247 18.71 19.31 45.64 24.84 42.35 8.698 49.75-13.793 12-36.464-9.5-5.704-11.12-7.127-17.01-14.946-3.58-4.752-10.17-12.36-14.65-16.906-10.42-10.58-11.76-13.176-11.72-22.766.05-13.945 14.73-44.722 32.56-68.278 6.04-7.99 6.45-9.722 2.28-9.722-21.01 0-35.97-28.12-29.99-56.364 4.81-22.706 32.61-39.132 62.96-37.194 6.07.387 12.24.693 13.71.678 1.46-.014 9.19-3.383 17.17-7.486 22.25-11.422 23.1-11.484 48.29-3.506 16.66 5.277 18.92 20.624 2.86 19.445-11.99-.88-14.73.252-27.15 11.21-10.4 9.165-11.36 9.743-23.81 14.268-8.52 3.1-9.77 3.28-23.22 3.37-23.65.15-22.89 4.35 3.11 17.03 36.02 17.57 40.1 43.6 11.03 70.37-6.05 5.57-8.32 8.42-9.58 12-.91 2.58-2.87 8.05-4.36 12.16-6.02 16.54-4.19 18.87 21.11 26.93 32.72 10.42 42.15 16.86 56.64 38.65 9.43 14.18 11.09 18.26 14.36 35.22.54 2.82 3.45 2.95 5.87.28 1.96-2.17 1.78-5.2-.92-14.83-11.8-42.21 7.91-112.31 36.41-129.45 3.56-2.14 11.18-7.33 16.94-11.52 10.17-7.42 25.73-16.25 28.61-16.25 1.85 0 8.25-11.52 10.72-19.32 5.86-18.51-1.77-26.93-18.68-20.6-7.51 2.81-7.04 4.93 1.09 4.93 16.94 0 11.88 23.41-6.99 32.37-29.77 14.13-52.65-30.78-27.48-53.94 37.63-34.61 82.78-29.6 96.26 10.66 13.56 40.52 1.25 71.45-37.66 94.61-31.47 18.73-43.31 45.58-34.29 77.79 5.62 20.08 6.73 25.12 11.38 52 4.84 28 4.84 28 8.75 33.25 7.87 10.56 18.38 6.02 19.44-8.42.48-6.55 1.35-9.55 5.21-17.86 2.54-5.49 6.3-14.26 8.34-19.48 16.97-43.35 81.19-52.6 128.9-18.55 11.51 8.21 22.32 37.24 24.55 65.91 1.14 14.6 3.39 19.18 14.22 28.87 25.15 22.5 25.67 25.04 4.95 24.6-21.18-.46-28.32-3.7-23.25-10.56 2.79-3.78 2.4-6.7-.96-7.03-12.47-1.26-16.99-4.29-16.99-11.39 0-3.01-.38-3.87-1.75-3.87-9.97-.04-12.05-28.94-2.36-32.95 3.55-1.47 4.11-3.05 1.09-3.05-1.12 0-2.31-.79-2.65-1.75-.34-.97-2.44-4.17-4.68-7.13-2.94-3.89-4.21-6.65-4.6-10-.53-4.63-.53-4.63-7.5-4.63s-6.98 0-9.07-4c-1.83-3.51-2.62-4.07-6.42-4.59-2.47-.34-4.89-1.36-5.65-2.39-1.19-1.63-1.89-1.69-7.25-.64-4.16.82-7.22.87-10.28.16-6.62-1.53-6.8-1.46-6.18 2.37 1.06 6.5-4.92 10.06-12.38 7.36-2.82-1.02-3.78-.94-6.22.5-1.59.94-3.61 1.71-4.51 1.71-.89 0-2.05 1.13-2.57 2.52-.53 1.39-1.82 3.75-2.88 5.25-1.05 1.51-2.2 4.69-2.54 7.07-.73 5.08-4.46 12.86-7.46 15.57-2.72 2.46-2.65 3.42.43 6.64 3.37 3.52 2.13 7.48-2.74 8.73-3.29.85-3.29.85-3.91 9.29-.86 11.69-4.99 21.94-8.84 21.94-4.17 0-6.3 5.74-3.5 9.44 2.64 3.5 1.89 5.56-2.03 5.56-2.97 0-3.5-.34-3.5-2.28 0-2.82-2.63-6.72-4.53-6.72-2.13 0-4.74 4.57-3.98 6.95.84 2.65-7.38 2.95-12.37.46-2.92-1.45-3.4-1.45-5.62 0-4.09 2.68-37.5 2.35-37.5-.37 0-3.81-3.82-4.52-5.77-1.09-2.03 3.56-30.34 4.8-34.67 1.52-2.5-1.89-5.98-1.88-7.56.03-1.09 1.31-10.5 1.5-73.5 1.5s-72.42-.19-73.5-1.5c-.72-.86-2.9-1.5-5.15-1.5-3.06 0-5.03-.88-9.07-4.08-2.84-2.24-7.33-5.17-9.97-6.51-5.4-2.73-5.21-2.43-3.69-5.78 1.8-3.95.31-7.54-3.83-9.27-4.46-1.86-7.94-.64-8.88 3.12-.76 3.02-1.55 3.16-3.79.68-1.5-1.65-1.52-1.99-.16-3.12 2.43-2.01 1.79-4.95-1.87-8.62-3.65-3.65-6.61-4.3-8.6-1.9-2.99 3.6-6.8-1.53-5.06-6.81 1.49-4.53.65-6.23-4-8.1-3.38-1.35-4.45-2.63-7.9-9.5-2.19-4.36-4.45-8.22-5.02-8.57-1.73-1.07-1.15-2.33 1.91-4.13 6.81-4.02 2.34-12.07-6.08-10.96-5.06.67-7.99-2.69-4.97-5.7 2.57-2.57-.39-9.73-4.02-9.73-7.65 0-23.23-13.9-19.75-17.61 3.61-3.85-1.7-11.604-5.89-8.6-5.08 3.64-8.22 1.42-8.22-5.82 0-7.514-2-8.244-12.03-4.383-5.16 1.99-9.52 1.39-10.42-1.43-.39-1.24-2.37-2.27-6.1-3.16-6.14-1.48-7.13-1.02-7.62 3.51-.27 2.52-1.2 3.43-5.82 5.71-7 3.46-7.7 3.44-8.517-.28-1.01-4.59-3.12-4.72-7.045-.44-3.74 4.08-4.276 5.97-1.94 6.864 3.18 1.22-1.04 7.36-7.25 10.55-2.77 1.42-2.81 2.487-.246 6.095 3.23 4.54 3.49 8.32 1.05 15.53-2.84 8.41-2.5 10.66 1.81 12.05 4.31 1.4 5.517 3.62 4.707 8.69-.55 3.42-.11 5.09 2.81 10.64 6.21 11.84 7.62 16.288 6.05 19.12-2.42 4.37-1.8 8.53 1.67 11.25 5.36 4.2 7.02 23.26 2.6 29.82-1.95 2.9-40.85 6.41-40.695 3.67.003-.15.66-2.07 1.45-4.27 2-5.55 1.87-11.192-.437-18.66-2.054-6.653-5.79-13.002-4.61-7.84 6.39 27.98 5.2 30.43-14.92 30.77-16 .27-16 .27-16.077-3.25-.085-4 1.26-4.452 5.94-2.012 6.37 3.324 10.43.804 7.285-4.52-.91-1.536-1.65-3.44-1.65-4.233 0-.79-.9-2.26-2-3.25-2.59-2.34-2.54-5.3.13-8.14 4.28-4.56-2.94-10.87-12.437-10.87-6.99 0-9.44-2.2-10.4-9.39-.74-5.53-4.48-5.7-5.28-.23-.54 3.65-14 6.07-14 2.51 0-2.19-3.69-3.63-6.06-2.36-2.5 1.34-2.06 3.35.82 3.78 4.78.71 6.18 5.928 2.69 10.07-2.38 2.83-2.51 3.418-1.452 6.618 1.5 4.53 2.5 4.426 5.03-.53 3.39-6.65 15.266-7.47 27.8-1.92 14.8 6.546 11.62 16.31-4.6 14.15-14.1-1.88-20.02 1.52-6.67 3.83 10.65 1.84 10.06 1.49 10.006 5.94-.07 6.07-22.66 6.41-25.18.38-3.95-9.46 3.66-15.35 19.84-15.35 13.32 0 12.94-2.093-1.1-6.11-9.51-2.72-12.13-2.5-15.86 1.36-6.25 6.47-8.41 14.04-5.8 20.28 1.44 3.47 1.44 3.47-4.12 3.47-6.19 0-6.49-.8-3.25-8.71 1.74-4.22 1.27-4.49-5.42-3.15-5.9 1.19-6.66 2.17-4.2 5.42 3.68 4.86.97 8.09-4.03 4.81-2.3-1.51-2.63-1.51-4.29 0-2.51 2.28-15.14 2.36-15.14.09zm142.76-2.72c7.993-7.46 2.152-24.74-8.36-24.74-7.393 0-10.874 4.766-10.208 13.976.854 11.808 11.093 17.744 18.57 10.765zm350.706.297c2.174-2.402 1.422-4.75-1.932-6.024-4.9-1.862-8.34 2.334-4.97 6.06 2.23 2.462 4.652 2.45 6.902-.036zm35.6.928c1.067-.572 1.934-2.085 1.934-3.38 0-2.56-1.417-3.32-11.237-6.043-4.43-1.228-6.066-2.227-7.184-4.39-.8-1.538-2.16-3.382-3.02-4.097-2.61-2.16-1.79-4.913 2.76-9.342 7.47-7.264 8.68-11.18 3.13-10.14-6.49 1.218-9.76-4.503-5.29-9.26 2.68-2.85 6.9-2.993 9.32-.313.99 1.1 2.15 2 2.56 2 1.27 0 4.96-12.156 5.61-18.5.34-3.3 1.22-6.888 1.96-7.973 3.06-4.467 1.01-18.484-7.38-50.492-9.6-36.623-8.34-58.326 4.12-70.542 2.81-2.754 6.82-7.704 8.92-11 4-6.287 5.3-7.42 18.1-15.81 8.71-5.71 9.5-6.16 17.88-10.187 26.89-12.928 31.67-73.43 7.79-98.532-4.35-4.572-7.43-4.666-4.46-.136 7.01 10.692 8.64 17.048 6.14 23.943-1.17 3.22-1.08 3.53 1.5 5.41 3.17 2.31 3.79 9.34 1.23 13.83-.85 1.48-1.49 5.57-1.57 10-.19 10.4-.92 12.57-4.15 12.23-4.54-.48-8.87 5.89-6.73 9.89 1.82 3.4-9.83 15.03-16.5 16.49-2.79.61-6.34 1.71-7.89 2.45-2.22 1.05-3.24 1.09-4.74.15-3.6-2.25-6.94 0-6.94 4.68 0 3.04-8.63 13.56-12 14.63-1.07.34-2.53 1.83-3.23 3.31-.99 2.09-2.11 2.76-4.95 3-4.5.38-5.58 1.59-6 6.71-.26 3.15-.69 3.93-2.08 3.69-1.96-.33-2.45 2.4-.55 3.03 2.27.76-2.51 11.21-5.31 11.61-6.01.86-7.71 6.85-3.4 11.98 2.58 3.06 3.27 6.59 1.5 7.68-.55.34-1 2.86-1 5.59 0 2.74-.67 6.59-1.5 8.57-1.98 4.75-1.92 5.2.95 6.51 3.55 1.62 3.73 3.15 1 8.53-3.237 6.38-3.1 7.85 1.132 12.54 3.585 3.97 3.585 3.97 1.43 6.26-3.02 3.22-2.49 8.71.91 9.5 3.53.83 3.566 2.39.13 6.3-5.964 6.79-2.374 11.95 7.31 10.5 3.28-.49 4.04 3.89 1.113 6.43-3.537 3.08-3.29 7.24.65 10.92 5.61 5.24 2.18 21.88-4.508 21.88-6.21 0-8.45 4.43-4.407 8.73 2.91 3.09 1.44 5.76-3.18 5.81-3.6.04-6.03 2.49-6.03 6.09 0 2.47 2.41 5.38 4.46 5.38 4.01 0 6.12 3.86 2.77 5.05-7.554 2.68-6.2 9.29 2.12 10.33 11.446 1.44 16.29 3.03 19.42 6.37 3.27 3.5 4.305 3.81 7.3 2.21zM339 355c2.176-2.176 2.25-2.47 1.402-5.628-1.45-5.398-9.402-4.25-9.402 1.356 0 5.38 4.493 7.78 8 4.272zm410.744-1.203c1.945-1.614 1.5-3.46-1.38-5.724-3.397-2.674-5.863-2.626-7.807.15-3.872 5.528 3.704 10.125 9.187 5.574zm-428.967-1.354c1.44-1.01 2.223-2.592 2.223-4.5 0-7.487-11.44-10.78-15.567-4.48-4.152 6.336 6.697 13.637 13.344 8.98zm235.803-1.328c10.1-6.16 4.478-21.12-7.444-19.813-11.52 1.262-16.43 14.876-7.152 19.836 4.46 2.383 10.665 2.373 14.596-.023zm-202.77-4.33c-.43-2.89-3.327-4.58-5.5-3.208-2.556 1.612-2.65 3.082-.35 5.383 2.59 2.59 6.354 1.192 5.85-2.176zm113.44-2.983c2.175-2.516 2.193-4.066.097-8.484-4.094-8.627-14.81-5.203-12.29 3.926 1.952 7.068 8.05 9.348 12.193 4.558zm-432.82.627c4.338-4.34-.245-14.53-5.778-12.85-3.584 1.09-5.652 3.56-5.652 6.76 0 6.04 7.486 10.03 11.43 6.08zm458.074-1.44c3.412-3.77-1.313-8.95-7.14-7.83-.988.19-2.47 1.55-3.296 3.02-3.057 5.44 6.06 9.64 10.436 4.8zm-120.074-1.56c2.77-2.78 1.89-4.3-2.68-4.63-3.838-.28-4.28-.58-4.575-3.15-.815-7.12 9.773-9.32 12.046-2.5.23.67 1.14.91 2.09.55 2.39-.92 2.17-5.97-.35-8.25-3.75-3.4-2.2-6.02 3.34-5.63 6.86.48 10.14-1.81 9.37-6.53-.77-4.77-2.31-6.31-6.28-6.31-2.84 0-3.37-.36-3.36-2.25.03-3.86 1.36-4.96 5.14-4.25 4.08.76 7.41-1.48 8.39-5.67.74-3.11-2.29-6.84-5.54-6.84-2.58 0-2.52-.76.25-3.01 1.97-1.6 2.12-2.19 1.16-4.74-.97-2.6-.78-3.27 1.75-6.11 5.2-5.82 2.68-13.16-4.53-13.16-4.7 0-5.85-1.79-5.05-7.81.63-4.72.51-5.1-2.2-6.84-3.37-2.17-9.18-7.89-11.34-11.16-1-1.51-4.26-3.24-9.48-5.01-7.42-2.52-8.01-2.93-8.63-5.98-1.01-4.93-3.75-7.48-7.28-6.77-4.14.83-5.46-.77-6.22-7.55-.87-7.73-5.45-10.33-11.15-6.34-4.36 3.05-10.42-4.36-6.94-8.49 3.99-4.74 1.94-12.05-3.37-12.05-3.56 0-.57-6.43 3.75-8.07 2.03-.78 2.33-1.56 2.33-6.22 0-5.18 3.62-13.14 6.9-15.16.61-.38 1.1-2.14 1.1-3.92 0-5.46 5.29-11.64 9.96-11.64 4.81 0 6.48-1.92 5.72-6.58-1.03-6.35 2.34-11.62 10.9-17.03 4.93-3.12 6.18-5.19 3.65-6.08-8.65-3.05-11.67-6.24-12.88-13.65-.85-5.2-2.13-5.4-11.2-1.78-9.72 3.88-9.54 3.88-13.6-.55-3.2-3.5-3.49-3.61-6.43-2.39-6.01 2.49-12.68-2.15-10.08-7.01.92-1.71.89-2.74-.15-4.68-1.38-2.59-.84-3.41 4.47-6.77 2.07-1.31-.07-12.29-3.23-16.57-3.16-4.28-.8-7.41 6.98-9.27 7.6-1.82 11.56-10.55 4.16-9.2-34.76 6.36-25.32 71.42 10.38 71.51 12.06.03 13.14 3.45 2.99 9.4-5.29 3.09-9.42 8.54-17.15 22.62-3.18 5.77-6.99 12.3-8.48 14.5-1.48 2.2-3.25 5.8-3.92 8-.67 2.2-2.83 7.24-4.79 11.2-8.02 16.2-5.84 26 8.73 39.3 5.59 5.1 9.68 9.77 11.06 12.64 2.44 5.04 5.55 7.56 19.05 15.47 23.65 13.85 33.56 36.06 25.97 58.14-2.16 6.28-2 6.74 2.385 6.74 5.307 0 7.36 4.32 3.88 8.17-2.04 2.26-4.65 2.33-7.87.22-3.69-2.42-4.36.18-3.28 12.57.4 4.49-3.64 6.46-8.05 3.94-3.26-1.88-5.14-1.42-5.14 1.25 0 4.94 4.51 8.72 8.107 6.79 1.75-.94 2.533-.72 4.75 1.33 5.31 4.93 11.47 6.26 14.57 3.15zm-24.775-229.26c-2.138-2.36-2.086-3.47.263-5.6 2.59-2.35 6.492-1.71 6.895 1.12.753 5.29-3.824 8.15-7.158 4.47zm51.45 226.72c4.046-4.05.967-10.9-4.9-10.9-4.387 0-7.205 2.4-7.205 6.15 0 6.07 7.74 9.1 12.104 4.74zm330.672-1.46c2.664-1.87 2.89-5.54.473-7.71-6.8-6.13-17.642.87-11.25 7.26 2.414 2.41 7.656 2.63 10.777.44zm-393.607-1.09c4.04-3.65 1.11-8.94-5.53-10.02-4.422-.72-6.63.86-6.63 4.75 0 5.72 7.896 9.13 12.17 5.26zm-30.39-1.91c4.79-3.35 1.16-10.25-4.72-8.96-3.18.7-5.06 3.01-5.06 6.24 0 4.18 5.5 5.71 9.78 2.71zm286.48-4.42c4.764-5.29 3.04-14.27-3.375-17.59-9.6-4.97-21.803 10.89-13.893 18.05 4.85 4.39 13.09 4.16 17.268-.47zM424.087 327c1.61 0 1.03-6.02-.65-6.663-2.38-.913-6.437 1.35-6.437 3.592 0 2.21 2.8 4.26 4.84 3.54.73-.26 1.745-.48 2.25-.48zM32 326c0-.55-.675-1-1.5-1s-1.5.45-1.5 1 .675 1 1.5 1 1.5-.45 1.5-1zm254.816-4.25c.27-2.353-.045-2.75-2.19-2.75-3 0-3.986 1.29-3.105 4.067 1 3.144 4.9 2.175 5.3-1.317zm192.013-.074c.41-2.206-2.51-5.676-4.79-5.676-3.54 0-5.31 4.337-2.8 6.845 1.85 1.855 7.16 1.036 7.58-1.17zM83.5 320.99c.342-.55.34-1.9-.01-3-.74-2.332-4.3-2.663-5.14-.473-1.114 2.903 3.555 6.057 5.15 3.478zm57.448-.43c1.62-1.954.934-5.96-1.09-6.347-2.9-.553-7.546 4.263-5.96 6.176 1.666 2 5.45 2.09 7.05.17zm359.07-3.086c1.506-1.81-.035-6.153-2.522-7.107-2.056-.79-6.5 2.26-6.5 4.46 0 3.96 6.382 5.832 9.024 2.648zm216.84-2.22c1.78-3.337 2.437-12.755.97-13.97-6.343-5.267-14.155.625-11.785 8.89 1.79 6.242 8.51 9.4 10.816 5.08zM276.8 314.8c3.208-3.208-.147-9.8-4.987-9.8-1.89 0-3.813 2.827-3.813 5.606 0 4.163 5.98 7.014 8.8 4.194zm-142.098-3.99c4.347-4.084 2.426-17.506-3.055-21.345-3.334-2.335-9.336-1.867-12.152.95-10.3 10.3 4.634 30.328 15.207 20.395zM596.8 307.8c.5-2.592-3.483-5.972-6.61-5.61-4.23.488-4.235 4.35-.006 6.21 4.076 1.795 6.192 1.603 6.616-.6zm-186-2c3.07-3.07.002-10.8-4.285-10.8-3.303 0-5.515 2.556-5.515 6.37 0 4.052 1.542 5.63 5.5 5.63 1.705 0 3.64-.54 4.3-1.2zm100.61-2.877c3.338-3.965 3.342-7.384.013-9.566-3.473-2.275-7.037-.92-9.695 3.686-4.267 7.394 4.123 12.49 9.683 5.88zm-251.62-6.07c.417-2.164-4.13-7.38-5.626-6.454-1.7 1.05-1.422 4.65.524 6.8 1.966 2.17 4.65 1.98 5.102-.36zm22.755-.308c6.73-6.73-.764-21.545-10.9-21.545-9.618 0-13.792 10.46-7.41 18.57 4.463 5.676 14.053 7.233 18.31 2.975zM599.963 298c4.653 0 10.06-12.644 8.142-19.043-2.677-8.935-15.33-9.325-19.47-.6-4.646 9.79 1.162 22.446 9.197 20.042.732-.22 1.69-.4 2.13-.4zm-104.575-4.25c1.17-1.86.032-4.777-2.146-5.503-2.03-.676-4.674 4.527-3.202 6.3 1.565 1.887 3.875 1.542 5.348-.797zM428 287.5c0-2.976-7.283-4.81-8.324-2.097-.618 1.61 1.12 4.142 3.324 4.847 2.027.648 5-.987 5-2.75zm-21.934-2.535c4.34-2.324 1.42-8.38-3.756-7.787-3.795.435-4.498 4.876-1.145 7.225 2.7 1.892 2.466 1.865 4.9.562zm98.912-4.424c1.47-2.74-.086-6.54-2.684-6.54-2.454 0-5.294 3.01-5.294 5.61 0 4.52 5.703 5.19 7.978.94zm205.077.43c4.257-2.27 6.09-9.04 3.29-12.14-4.003-4.42-11.345-1.12-11.345 5.11 0 6.37 3.536 9.46 8.055 7.04zm-270.762-1.98c7.957-6.26 5.212-22.25-4.31-25.1-10.665-3.19-18.84 7.36-14.5 18.72 2.986 7.82 12.768 11.15 18.81 6.39zm-314.84-8.53c10.072-4.78 5.76-21.45-5.546-21.45-9.294 0-13.383 10.97-6.86 18.41 2.65 3.02 4.078 3.79 8.302 4.46.46.08 2.31-.56 4.1-1.41zm122.637-.06c1.134-1.36 1.048-1.82-.57-3-2.473-1.81-4.44-1.77-5.158.11-1.503 3.92 2.994 6.19 5.728 2.9zM413 268c3.69-3.69 1.374-11-3.485-11-5.396 0-7.783 8.298-3.292 11.443 2.937 2.058 4.37 1.964 6.777-.443zm79.99-.487c1.903-2.294.583-4.345-2.426-3.77-3.234.618-4.095 1.913-2.528 3.8 1.548 1.866 3.39 1.854 4.953-.03zm115.01.642c0-1.64-3.945-4.39-5.463-3.808-1.85.71-2.034 3.286-.287 3.99 2.073.837 5.75.72 5.75-.182zm17.708-6.758c8.346-6.334 3.144-17.347-8.208-17.38-13.507-.036-16.797 16.825-3.958 20.284 3.402.92 8.843-.38 12.166-2.9zm71.892.838c7.75-5.176.365-19.577-9.127-17.796-8.44 1.58-10.236 12.91-2.698 17 2.875 1.56 9.965 2.03 11.825.79zm-446.235-2.308c3.114-2.45 3.668-9.007 1.074-12.71-5.52-7.875-16.44-5.953-16.44 2.89 0 8.92 9.11 14.74 15.36 9.82zM494.6 255.6c2.542-2.542 3.39-4.246 3.365-6.75-.12-11.368-15.464-16.52-20.455-6.87-6.162 11.917 7.725 22.985 17.09 13.62zm-94.942-1.2c2.008-3.065.918-5.71-2.565-6.227-4.51-.67-7.178 5.513-3.343 7.747 2.763 1.61 4.08 1.27 5.908-1.52zm265.42-4.323c7.09-7.092-1.534-17.715-12.685-15.623-8.947 1.68-12.932 12.418-6.143 16.557 5.394 3.29 15.085 2.81 18.827-.93zm-437.256-5.5c.674-5.637-4.966-7.524-9.357-3.133-2.98 2.98-2.356 5.27 1.935 7.1 3.902 1.665 6.944.04 7.422-3.968zm-95.02-4.202c.416-2.91-2.48-5.55-5.678-5.18-2.99.347-4.118 3.902-2.036 6.41 1.9 2.29 7.337 1.423 7.715-1.23zm286.065-3.17c4.212-4.606 1.754-14.517-5.366-21.637-12.45-12.458-27.97.708-18.96 16.09 5.1 8.7 18.63 11.786 24.33 5.548zm-31.704-.664c1.486-3.26-1.132-7.54-4.613-7.54-2.454 0-6.55 4.12-6.55 6.59 0 3.92 9.447 4.72 11.163.96zm-161.353-7.83c6.52-6.94 1.25-18.26-9.44-20.28-9.447-1.78-15.084 10.88-8.16 18.34 4.56 4.91 13.85 5.94 17.6 1.95zm-91.012-2.36c7.96-5.02 8.21-17.28.43-21.27-3.205-1.64-13.98 3.15-15.383 6.84-4.102 10.79 5.715 20.27 14.953 14.44zm238.673-.69c2.47-1.8 1.32-4.64-1.88-4.64-2.94 0-3.94 1.3-3.08 4.01.74 2.33 2.38 2.54 4.97.64zM359 223.47c0-1.598-2.658-3.146-3.667-2.137-.32.32-.314 1.275.012 2.124.767 1.998 3.655 2.008 3.655.012zm138.56.09c2.652-1.97.784-5.06-3.06-5.06-3.5 0-5.436 2.667-3.57 4.916 1.636 1.97 4.096 2.024 6.63.143zm-337.572-1.537c.84-1.57.642-2.393-.965-4-3.104-3.104-7.023-2-7.023 1.977 0 3.987 6.11 5.534 7.988 2.023zm209.602-6.49c4.823-3.16 4.382-9.495-1.038-14.915-8.33-8.328-19.552-6.472-19.552 3.234 0 10.434 12.055 17.273 20.59 11.68zm-186.488-2.836c4.21-2.853 5.12-13.586 1.493-17.593-4.284-4.732-20.714-1.463-22.19 4.415-2.815 11.22 10.798 19.88 20.697 13.17zm308.68-.258c5.92-4.15 7.155-14.66 2.295-19.52-9.15-9.15-25.275 4.49-19.052 16.12 2.43 4.54 12.276 6.53 16.758 3.39zM333.6 194.23c5.132-3.427 3.22-9.126-2.355-7.022-4.144 1.566-4.956 3.794-2.195 6.03 2.405 1.95 2.944 2.066 4.55.994zm9.682-14.606c5.8-2.473 8.08-5.948 8.53-13.006.807-12.692-7.445-18.767-16.813-12.373-13.18 8.99-5.86 31.404 8.28 25.38zm156.257-9.103c7.18-7.61 4.33-20.52-4.53-20.52-5.8 0-12.82 7.12-13.73 13.92-1.26 9.4 11.33 13.96 18.25 6.62zm14.21-22.77c-.23-.69-1.02-1.25-1.75-1.25-.74 0-1.52.57-1.75 1.25-.25.75.46 1.25 1.75 1.25s1.99-.5 1.75-1.25zm-169.94-2.5c-.38-1.98-5.47-3-7.05-1.41-1.67 1.67.16 3.17 3.86 3.17 2.8 0 3.45-.35 3.18-1.75zm181.17-4.74c11.69-6.04 5.43-20.34-7.25-16.54-9.1 2.73-13.45 12.97-7 16.47 3.56 1.94 10.57 1.98 14.24.08zm-157.94-5.53c4.81-2.57 6.57-12.19 2.84-15.56-3.46-3.12-12.1-2.65-15.6.85-8.06 8.06 2.48 20.22 12.76 14.72zm188.52-17.85c4.73-2.88 6.07-7.1 3.77-11.82-4.01-8.2-18.36-3.59-18.36 5.9 0 7.24 7.45 10.27 14.58 5.93zm-167.3-4.28c1.36-1.83 1.78-3.46 1.34-5.22-2.21-8.81-14.62-8.74-14.62.09 0 7.56 8.92 11.01 13.28 5.14zM370 107.5c0-1.375-.464-2.5-1.03-2.5-1.344 0-2.33 2.606-1.5 3.952 1.165 1.885 2.53 1.1 2.53-1.452zm197 .5c0-.55-.45-1-1-1s-1 .45-1 1 .45 1 1 1 1-.45 1-1zM370.02 97.96c3.428-6.403-.844-16.263-7.607-17.555-7.325-1.4-12.54 10.384-7.448 16.833 3.84 4.866 12.613 5.287 15.056.723zm208.457-8.13c4.392-2.003 4.606-8.747.41-12.942-2.344-2.345-5.73-1.997-9.887 1.013-7.736 5.61.53 16.01 9.477 11.93zm-62.653-.78c2.1-.602 4.234-.598 5.838.012 4.91 1.867 15.36-5.726 18.215-13.24 1.864-4.9-3.28-6.38-5.398-1.553-1.57 3.56-6.68 3.71-6.28.18.41-3.72-2.73-5.76-4.72-3.07-.98 1.32-1.12 2.43-.44 3.68 1.55 2.91 1.16 3.55-2.91 4.77-9.07 2.71-14.59.69-13.47-4.93.58-2.9-2.49-7.92-4.84-7.92-6.56 0 3.32 21.26 10.68 22.99l3.32-.95zM330.8 72.207c6.64-4.34 7.354-15.658 1.15-18.228-7.105-2.95-13.328.69-14.495 8.47-1.48 9.86 5.442 14.92 13.346 9.75zm185.568-2.322c2.544-3.632-.5-6.955-4.44-4.846-2.155 1.15-2.624 5.51-.678 6.29 2.436.98 3.654.63 5.118-1.46zm62.698-5.92c3.46-1.852 2.46-4.965-1.597-4.965-4.21 0-5.82 2.54-2.94 4.645 2.22 1.624 2.11 1.617 4.53.32zM506.8 62.8c1.547-1.547 1.547-6.053 0-7.6-2.755-2.755-7.8-.704-7.8 3.17 0 4.23 5.102 7.128 7.8 4.43zm71.186-8.792c7.606-4.07 2.223-15.702-5.614-12.13-3.596 1.637-3.156 9.928.628 11.833 3.03 1.53 2.722 1.51 4.986.3zM342.793 49.76c1.53-2.53 1.534-2.862.028-4.368-1.9-1.908-3.58-1.15-4.85 2.196-2.05 5.4 1.82 7.144 4.83 2.173zm37.066-1.782c2.39-1.088 5.36-1.978 6.59-1.978 3.87 0 13.75-5.748 22.35-13.012 12.35-10.43 16.68-12.362 27.44-12.243 8.06.09 8.75-.056 8.75-1.87 0-8.152-18.23-10.052-21.5-2.24-1.69 4.032-3.81 5.077-6.93 3.406-4.35-2.32-21.93 7.25-21.14 11.51.99 5.31-4.31 8.74-7.52 4.87-.9-1.08-2.24-1.4-4.19-1.01-2.52.51-2.8.33-2.24-1.41.9-2.83-.28-5.78-2.6-6.52-4.73-1.5-6.96 5.64-2.41 7.71 4.62 2.11-5.23 7.73-11.39 6.5-3.24-.65-8.1 2.32-8.1 4.94 0 3.76 15.55 4.69 22.86 1.38zM354.8 41.8c1.977-1.977 1.48-7.58-.777-8.788-3.802-2.034-12.283 3.474-10.203 6.627 2.024 3.07 8.748 4.39 10.98 2.16zm-15.61-4.365c.972-3.565.394-5.435-1.68-5.435-2.393 0-3.965 4.282-2.545 6.934 1.508 2.818 3.214 2.213 4.226-1.5zm228.206-1.025c.823-2.143-.1-3.41-2.486-3.41-2.118 0-3.5 2.238-2.44 3.952.99 1.604 4.24 1.246 4.926-.542zm-205.41-3.16c-.01-.412-.435-1.412-.947-2.22-1.16-1.823-2.51-.683-1.7 1.427.6 1.558 2.67 2.18 2.64.793zm184.705-.886c.91-2.37-1.03-4.864-3.78-4.864-2.45 0-3.58 2.283-2.52 5.058.76 1.98 5.53 1.835 6.31-.194zm-198.13-6.46c1.35-2.183-2.32-4.57-4.17-2.714-1.89 1.89-1.07 3.81 1.62 3.81 1.04 0 2.19-.493 2.56-1.096zm48.98-2.016c.95-2.99-1.82-5.724-3.98-3.93-1.59 1.323-2.06 4.193-.88 5.375 1.41 1.41 4.23.573 4.87-1.445zm-225 336.362c3.8-8.786 1.16-36.885-4.64-49.467-3.45-7.487-4.31-10.562-4.69-16.728-.37-5.98-1.17-8.958-3.83-14.28-7.28-14.55-1.38-27.2 15.11-32.4 11.05-3.48 12.15-2.135 63.47 77.228 6.29 9.73 12.98 19.087 14.86 20.794 3.23 2.93 7.1 9.354 8.65 14.353 1.71 5.503-4.71 2.727-7.25-3.136-1.27-2.943-6.71-10.923-12.09-17.733-5.37-6.8-11.52-15.73-13.67-19.84-2.14-4.1-6.09-9.95-8.76-13-4.92-5.6-8.67-11.81-8.67-14.34 0-4.98-28.45-40.7-32.42-40.7-13.36 0-21.11 15.07-14.48 28.2 2.15 4.25 3.49 8.94 4.37 15.24.89 6.35 2.23 10.99 4.42 15.34 7.7 15.26 8.69 52.23 1.39 52.23-1.99 0-2.34-.35-1.73-1.75zm93.46.77c0-1.882 5.13-2.323 8.35-.718 3.15 1.57 3.15 1.57-2.6 1.634-3.16.035-5.75-.377-5.75-.917zm350.61-10.27c1.24-6.188 4.06-18.288 6.29-26.89 2.22-8.6 4.55-19.85 5.17-25 1.39-11.53 1.56-11.724 14.78-16.87 19.56-7.608 27.64-7.362 36.54 1.11 2.82 2.684 5.43 4.884 5.79 4.89 3.49.053 5.33 7.763 5.37 22.53.06 18.95 6.43 30.63 24.95 45.76 6.4 5.22 6.4 5.22 2.81 5.54-4.46.396-12.59-7.078-23.4-21.502-8.75-11.68-8.88-12.07-8.89-26.633-.01-30.968-15.2-39.87-45.16-26.474-8 3.58-7.39 2.23-9.31 20.59-1.69 16.22-2.11 18.09-5.84 26.21-1.95 4.23-5.68 22.33-5.68 27.53 0 .26-1.27.47-2.82.47-2.81 0-2.81 0-.57-11.25zm48.32-83.334c-1.75-2.113 0-4.916 3.07-4.916 2.67 0 4.59 2.526 3.69 4.864-.8 2.088-5.04 2.12-6.76.052z" fill="#2b2d3a"/></svg>