<?xml version="1.0" encoding="UTF-8" standalone="no"?>
<svg
   xmlns:dc="http://purl.org/dc/elements/1.1/"
   xmlns:cc="http://creativecommons.org/ns#"
   xmlns:rdf="http://www.w3.org/1999/02/22-rdf-syntax-ns#"
   xmlns:svg="http://www.w3.org/2000/svg"
   xmlns="http://www.w3.org/2000/svg"
   xmlns:sodipodi="http://sodipodi.sourceforge.net/DTD/sodipodi-0.dtd"
   xmlns:inkscape="http://www.inkscape.org/namespaces/inkscape"
   width="37"
   height="10"
   viewBox="0 0 37 10"
   version="1.1"
   xml:space="preserve"
   style="clip-rule:evenodd;fill-rule:evenodd;stroke-linejoin:round;stroke-miterlimit:1.41420996"
   id="svg24"
   sodipodi:docname="hentaic.svg"
   inkscape:version="0.92.3 (2405546, 2018-03-11)"><metadata
     id="metadata30"><rdf:RDF><cc:Work
         rdf:about=""><dc:format>image/svg+xml</dc:format><dc:type
           rdf:resource="http://purl.org/dc/dcmitype/StillImage" /><dc:title /></cc:Work></rdf:RDF></metadata><defs
     id="defs28" /><sodipodi:namedview
     pagecolor="#ffffff"
     bordercolor="#666666"
     borderopacity="1"
     objecttolerance="10"
     gridtolerance="10"
     guidetolerance="10"
     inkscape:pageopacity="0"
     inkscape:pageshadow="2"
     inkscape:window-width="1920"
     inkscape:window-height="1017"
     id="namedview26"
     showgrid="false"
     inkscape:zoom="21.939422"
     inkscape:cx="12.179156"
     inkscape:cy="3.4377124"
     inkscape:window-x="-8"
     inkscape:window-y="-8"
     inkscape:window-maximized="1"
     inkscape:current-layer="svg24"
     units="px" /><path
     d="m 6.001,3.995 h 10e-4 c 0,0.334 0.001,0.667 0.001,1 H 6.002 l 0.002,2.003 -1,10e-4 -0.002,-2.003 -3,0.003 0.002,1.999 -1,10e-4 L 1.002,5 V 5 L 1.001,4 v 0 l -0.002,-2.002 1,-10e-4 0.002,2.002 3,-0.003 -0.002,-1.998 1,-10e-4 z"
     style="fill:none;stroke:#000000;stroke-width:1.5;stroke-miterlimit:1.41420996;stroke-dasharray:none"
     id="path2"
     inkscape:connector-curvature="0" /><path
     d="m 6.001,3.995 h 10e-4 c 0,0.334 0.001,0.667 0.001,1 H 6.002 l 0.002,2.003 -1,10e-4 -0.002,-2.003 -3,0.003 0.002,1.999 -1,10e-4 L 1.002,5 V 5 L 1.001,4 v 0 l -0.002,-2.002 1,-10e-4 0.002,2.002 3,-0.003 -0.002,-1.998 1,-10e-4 z"
     style="fill:#ff00c6;fill-rule:nonzero"
     id="path4"
     inkscape:connector-curvature="0" /><path
     d="m 28.654,-0.017 c 1.241,0.002 1.226,1.481 1.907,1.482 0.674,0 0.675,-1.509 1.748,-1.491 1.745,0.029 4.637,3.226 4.619,4.431 -10e-4,0.021 -0.002,0.042 -0.003,0.064 -0.1,1.726 -3.183,5.532 -6.338,5.488 C 27.12,9.908 24.046,6.16 23.985,4.427 23.936,3.041 26.549,-0.02 28.654,-0.017 Z"
     style="fill:#d60099"
     id="path6"
     inkscape:connector-curvature="0" /><path
     d="m 32.35,-0.025 0.041,0.003 0.042,0.003 0.043,0.005 0.042,0.006 0.043,0.007 0.044,0.007 0.043,0.009 0.044,0.01 0.045,0.011 0.044,0.013 0.045,0.013 0.046,0.014 0.045,0.015 0.046,0.016 0.046,0.016 0.046,0.018 0.047,0.019 0.093,0.04 0.095,0.044 0.094,0.047 0.096,0.05 0.096,0.053 0.096,0.056 0.097,0.059 0.097,0.062 0.097,0.065 0.097,0.067 0.097,0.069 0.097,0.072 0.096,0.074 0.096,0.075 0.096,0.078 0.095,0.08 0.094,0.081 0.094,0.083 0.093,0.084 0.092,0.086 0.091,0.087 0.09,0.088 0.088,0.089 0.088,0.089 0.086,0.091 0.084,0.091 0.083,0.092 0.081,0.092 0.08,0.092 0.077,0.093 0.076,0.092 0.074,0.093 0.071,0.092 0.07,0.092 0.067,0.091 0.064,0.091 0.063,0.09 0.059,0.09 0.057,0.088 0.054,0.088 0.051,0.086 0.048,0.085 0.046,0.084 0.042,0.082 0.038,0.081 0.036,0.079 0.032,0.077 0.028,0.075 0.025,0.073 0.021,0.071 0.01,0.034 0.008,0.034 0.007,0.033 0.006,0.033 0.006,0.032 0.004,0.031 0.003,0.031 0.002,0.03 10e-4,0.03 10e-4,0.028 L 36.925,4.469 36.922,4.51 36.918,4.551 36.913,4.594 36.907,4.637 36.9,4.68 36.892,4.725 36.882,4.77 36.872,4.815 36.861,4.862 36.848,4.909 36.835,4.956 36.821,5.004 36.805,5.053 36.789,5.102 36.753,5.202 36.714,5.304 36.671,5.408 36.624,5.513 36.573,5.62 36.519,5.728 36.462,5.838 36.4,5.949 36.336,6.061 36.268,6.173 36.197,6.287 36.123,6.401 36.046,6.515 35.966,6.63 35.883,6.745 35.796,6.86 35.707,6.975 35.616,7.09 l -0.095,0.115 -0.097,0.114 -0.1,0.113 -0.102,0.113 -0.104,0.111 -0.107,0.111 -0.11,0.11 -0.111,0.108 -0.114,0.107 -0.115,0.105 -0.118,0.103 -0.12,0.102 -0.122,0.1 -0.123,0.098 -0.126,0.095 -0.127,0.093 -0.064,0.045 -0.064,0.045 -0.065,0.045 -0.065,0.043 -0.066,0.043 -0.066,0.042 -0.067,0.042 -0.066,0.04 -0.067,0.04 -0.068,0.039 -0.068,0.039 -0.068,0.037 -0.068,0.037 -0.069,0.036 -0.069,0.035 -0.069,0.034 -0.069,0.033 -0.07,0.032 -0.07,0.032 -0.071,0.03 -0.07,0.029 L 32.335,9.615 32.264,9.642 32.193,9.669 32.121,9.694 32.05,9.718 31.978,9.741 31.906,9.764 31.834,9.785 31.761,9.805 31.689,9.823 31.616,9.841 31.543,9.857 31.47,9.873 31.397,9.887 31.324,9.9 31.251,9.911 31.177,9.921 31.104,9.931 31.03,9.938 30.957,9.945 30.883,9.95 30.809,9.954 30.735,9.956 30.661,9.957 H 30.587 L 30.506,9.955 30.425,9.952 30.344,9.947 30.264,9.942 30.183,9.935 30.103,9.926 30.022,9.917 29.942,9.906 29.863,9.894 29.783,9.88 29.704,9.866 29.625,9.85 29.546,9.834 29.467,9.816 29.389,9.797 29.311,9.776 29.233,9.755 29.155,9.733 29.078,9.709 29.001,9.685 28.924,9.659 28.847,9.633 28.771,9.605 28.696,9.577 28.62,9.548 28.545,9.517 28.47,9.486 28.396,9.454 28.321,9.421 28.248,9.387 28.174,9.352 28.101,9.316 28.029,9.279 27.956,9.242 27.885,9.204 27.813,9.165 27.742,9.125 27.672,9.085 27.601,9.044 27.532,9.002 27.462,8.959 27.393,8.916 27.325,8.872 27.257,8.827 27.19,8.782 27.123,8.736 27.056,8.69 26.99,8.643 26.925,8.595 26.86,8.547 26.732,8.449 26.605,8.349 26.481,8.247 26.36,8.144 26.24,8.038 26.123,7.932 26.008,7.824 25.896,7.714 25.787,7.604 25.68,7.492 25.575,7.38 25.474,7.267 25.375,7.154 25.279,7.04 25.186,6.925 25.096,6.811 25.009,6.696 24.925,6.582 24.845,6.468 24.767,6.354 24.693,6.24 24.622,6.127 24.554,6.015 24.49,5.904 24.43,5.794 24.373,5.685 24.319,5.577 24.27,5.47 24.224,5.365 24.182,5.262 24.162,5.211 24.144,5.16 24.126,5.11 24.109,5.061 24.094,5.011 24.079,4.963 24.065,4.915 24.053,4.867 24.041,4.821 24.031,4.774 24.021,4.729 24.013,4.683 24.005,4.639 23.999,4.595 23.994,4.552 23.99,4.51 23.987,4.468 23.985,4.427 23.984,4.394 V 4.361 L 23.985,4.327 23.988,4.292 23.991,4.257 23.995,4.222 24,4.185 24.006,4.149 24.013,4.111 24.02,4.074 24.038,3.997 24.06,3.918 l 0.025,-0.08 0.028,-0.082 0.032,-0.083 0.034,-0.085 0.038,-0.086 0.041,-0.087 0.043,-0.088 0.047,-0.09 0.049,-0.09 0.053,-0.09 0.054,-0.091 0.058,-0.092 0.06,-0.092 0.062,-0.093 0.065,-0.093 0.067,-0.092 0.069,-0.093 0.072,-0.092 0.073,-0.093 0.076,-0.092 0.077,-0.091 0.08,-0.091 0.081,-0.09 0.083,-0.089 0.084,-0.089 0.087,-0.087 0.087,-0.086 0.089,-0.086 0.091,-0.083 0.091,-0.083 0.093,-0.08 0.094,-0.079 0.095,-0.077 0.097,-0.076 0.097,-0.073 0.097,-0.072 0.099,-0.069 0.1,-0.066 0.1,-0.065 0.1,-0.061 0.101,-0.06 0.102,-0.056 0.102,-0.053 0.102,-0.051 0.102,-0.047 0.051,-0.023 0.051,-0.022 0.052,-0.021 0.051,-0.02 0.051,-0.019 0.051,-0.018 0.052,-0.018 0.051,-0.016 0.051,-0.016 0.051,-0.015 0.051,-0.014 0.051,-0.013 0.051,-0.011 0.051,-0.011 0.05,-0.01 0.051,-0.009 0.05,-0.008 0.051,-0.007 0.05,-0.006 0.05,-0.005 0.05,-0.004 0.05,-0.002 0.049,-0.002 0.05,-0.001 0.057,0.002 0.056,0.003 0.053,0.005 0.052,0.007 0.051,0.01 0.048,0.011 0.047,0.012 0.046,0.015 0.044,0.016 0.043,0.017 0.041,0.019 0.04,0.021 0.039,0.022 0.037,0.023 0.037,0.024 0.035,0.026 0.034,0.026 0.032,0.028 0.032,0.028 0.031,0.03 0.03,0.03 0.029,0.031 0.028,0.032 0.027,0.032 0.027,0.033 0.025,0.033 0.05,0.068 0.047,0.068 0.045,0.07 0.044,0.069 0.042,0.069 0.082,0.133 0.041,0.064 0.041,0.061 0.041,0.058 0.021,0.028 0.021,0.026 0.022,0.026 0.022,0.024 0.022,0.023 0.022,0.022 0.024,0.02 0.023,0.019 0.025,0.018 0.024,0.016 0.026,0.014 0.026,0.013 0.027,0.011 0.028,0.009 0.029,0.007 0.029,0.005 0.031,0.004 0.031,0.001 0.031,-0.001 0.03,-0.004 0.03,-0.005 L 30.68,1.448 30.707,1.439 30.734,1.427 30.76,1.415 30.786,1.4 30.81,1.384 l 0.024,-0.018 0.024,-0.02 0.023,-0.02 0.022,-0.023 0.022,-0.023 0.021,-0.025 0.022,-0.026 0.02,-0.027 0.021,-0.028 0.04,-0.059 0.039,-0.062 0.039,-0.065 0.039,-0.067 0.039,-0.068 0.08,-0.14 0.042,-0.07 0.043,-0.07 0.045,-0.068 0.023,-0.034 0.024,-0.033 0.024,-0.033 0.026,-0.032 0.025,-0.031 0.027,-0.03 0.027,-0.03 0.028,-0.028 0.029,-0.028 0.03,-0.027 0.031,-0.025 0.031,-0.024 0.033,-0.023 0.034,-0.022 0.035,-0.02 0.036,-0.019 0.037,-0.017 0.038,-0.016 0.04,-0.014 0.041,-0.012 0.042,-0.011 0.044,-0.008 0.045,-0.007 0.046,-0.004 0.048,-0.003 h 0.05 z m -0.066,0.87 H 32.276 L 32.27,0.846 32.266,0.847 H 32.264 32.263 32.262 L 32.261,0.848 32.259,0.85 32.256,0.852 32.251,0.855 32.246,0.86 32.239,0.866 32.231,0.873 32.222,0.883 32.212,0.893 32.201,0.906 32.19,0.92 32.177,0.936 32.164,0.954 32.15,0.973 32.137,0.991 32.104,1.041 32.072,1.094 32.038,1.151 31.962,1.284 31.921,1.355 31.877,1.431 31.829,1.511 31.777,1.594 31.72,1.676 31.685,1.725 31.65,1.77 31.613,1.816 31.572,1.863 31.528,1.91 31.48,1.957 31.428,2.005 31.372,2.052 31.31,2.097 31.243,2.141 31.171,2.183 31.094,2.221 31.013,2.255 30.927,2.283 30.838,2.306 30.746,2.323 30.654,2.333 30.561,2.336 30.469,2.333 30.378,2.323 30.288,2.307 30.2,2.285 30.115,2.258 30.034,2.225 29.957,2.188 29.885,2.148 29.819,2.105 29.757,2.06 29.7,2.015 29.648,1.969 29.6,1.922 29.556,1.876 29.515,1.831 29.477,1.786 29.442,1.742 29.407,1.695 29.35,1.616 29.296,1.535 29.247,1.458 29.162,1.319 29.122,1.254 29.084,1.195 29.049,1.14 29.015,1.091 28.98,1.043 28.967,1.026 28.952,1.008 28.938,0.991 28.924,0.975 28.911,0.961 28.898,0.949 28.886,0.937 28.875,0.927 28.865,0.918 28.855,0.911 28.845,0.904 28.836,0.898 28.828,0.892 28.819,0.888 28.811,0.883 28.803,0.88 28.794,0.876 28.784,0.872 28.774,0.869 28.762,0.866 28.749,0.863 28.734,0.86 28.717,0.858 28.698,0.856 28.677,0.855 28.649,0.854 28.623,0.855 28.592,0.856 28.561,0.857 28.53,0.86 l -0.033,0.003 -0.032,0.004 -0.033,0.004 -0.034,0.006 -0.035,0.006 -0.035,0.006 -0.035,0.008 -0.036,0.009 -0.036,0.009 -0.037,0.01 -0.038,0.011 -0.037,0.011 -0.038,0.013 -0.039,0.013 -0.039,0.014 -0.039,0.014 -0.04,0.016 -0.04,0.016 -0.04,0.017 -0.038,0.017 -0.085,0.039 -0.083,0.041 -0.083,0.044 -0.084,0.047 -0.085,0.05 -0.085,0.052 -0.085,0.054 -0.085,0.058 -0.086,0.059 -0.085,0.062 -0.084,0.064 -0.084,0.066 -0.084,0.068 -0.083,0.07 -0.082,0.071 -0.082,0.073 -0.08,0.075 -0.08,0.076 -0.078,0.077 -0.077,0.078 -0.075,0.079 -0.074,0.08 -0.073,0.08 -0.07,0.081 -0.07,0.082 -0.067,0.081 -0.065,0.082 -0.063,0.082 -0.061,0.082 -0.059,0.081 -0.057,0.081 -0.054,0.08 -0.052,0.08 -0.049,0.079 -0.047,0.077 -0.043,0.076 -0.041,0.075 -0.039,0.073 -0.035,0.071 -0.032,0.069 -0.029,0.066 -0.026,0.063 -0.023,0.061 -0.019,0.057 -0.017,0.053 -0.013,0.05 -0.012,0.049 -0.003,0.016 -0.004,0.019 -0.003,0.018 -0.002,0.017 -0.002,0.015 -10e-4,0.013 -0.001,0.012 v 0.01 0.009 0.007 l 0.001,0.018 10e-4,0.02 0.002,0.022 0.003,0.023 0.004,0.025 0.004,0.027 0.006,0.028 0.006,0.029 0.007,0.031 0.007,0.031 0.009,0.033 0.01,0.034 0.01,0.036 0.012,0.036 0.012,0.037 0.014,0.038 0.014,0.039 0.015,0.038 0.034,0.085 0.037,0.085 0.041,0.088 0.045,0.09 0.048,0.093 0.052,0.094 0.056,0.096 0.059,0.098 0.062,0.099 0.065,0.1 0.069,0.101 0.072,0.102 0.075,0.103 0.078,0.102 0.081,0.103 0.084,0.104 0.087,0.103 0.089,0.102 0.092,0.103 0.095,0.101 0.097,0.101 0.099,0.101 0.102,0.099 0.104,0.098 0.106,0.097 0.109,0.095 0.11,0.094 0.112,0.092 0.114,0.09 0.117,0.09 0.057,0.042 0.059,0.043 0.06,0.042 0.059,0.042 0.06,0.041 0.061,0.041 0.061,0.04 0.061,0.039 0.061,0.039 0.062,0.038 0.062,0.037 0.062,0.037 0.063,0.035 0.063,0.036 0.063,0.034 0.064,0.034 0.063,0.033 0.064,0.032 0.064,0.031 0.065,0.031 0.064,0.03 0.065,0.028 0.065,0.029 0.065,0.027 0.065,0.026 0.066,0.026 0.065,0.024 0.066,0.024 0.066,0.023 0.066,0.022 0.066,0.021 0.066,0.02 0.066,0.019 0.066,0.018 0.066,0.017 0.067,0.016 0.066,0.015 0.067,0.014 0.066,0.013 0.067,0.013 0.066,0.011 0.067,0.01 0.067,0.009 0.066,0.008 0.067,0.007 0.067,0.006 0.066,0.004 0.067,0.004 0.067,0.003 0.066,10e-4 h 0.058 L 30.715,9.085 30.772,9.084 30.83,9.081 30.888,9.077 30.946,9.071 31.005,9.065 31.063,9.058 31.122,9.05 31.181,9.041 31.24,9.03 l 0.059,-0.011 0.059,-0.013 0.059,-0.013 0.06,-0.014 0.06,-0.016 0.059,-0.016 0.06,-0.018 0.06,-0.018 0.06,-0.019 0.06,-0.021 0.06,-0.021 0.06,-0.022 0.06,-0.024 0.06,-0.024 0.06,-0.025 0.06,-0.026 0.06,-0.027 0.06,-0.027 0.06,-0.029 0.06,-0.029 0.06,-0.031 0.06,-0.031 0.059,-0.032 0.06,-0.033 0.059,-0.033 0.059,-0.035 0.059,-0.035 0.059,-0.036 0.059,-0.036 0.059,-0.038 0.058,-0.038 0.058,-0.038 0.058,-0.04 0.057,-0.04 0.056,-0.039 0.115,-0.085 0.113,-0.086 0.111,-0.088 0.11,-0.09 L 33.873,7.641 33.98,7.548 34.085,7.452 34.188,7.355 34.29,7.257 34.389,7.157 34.487,7.056 34.582,6.954 34.675,6.852 34.766,6.749 34.854,6.645 34.94,6.541 35.023,6.437 35.103,6.333 35.181,6.229 35.256,6.125 35.328,6.022 35.397,5.92 35.463,5.819 35.526,5.718 35.585,5.619 35.642,5.521 35.695,5.425 35.744,5.331 35.79,5.239 35.832,5.15 35.871,5.063 35.906,4.979 35.937,4.899 35.965,4.819 35.977,4.785 35.988,4.749 35.999,4.714 36.008,4.68 36.017,4.647 36.024,4.616 36.031,4.586 36.037,4.557 36.042,4.53 36.046,4.505 36.05,4.481 36.052,4.458 36.054,4.437 36.055,4.422 36.056,4.394 V 4.391 L 36.055,4.384 36.054,4.375 36.052,4.365 36.049,4.352 36.046,4.338 36.042,4.326 36.03,4.284 36.015,4.24 35.997,4.192 35.974,4.139 35.949,4.081 35.919,4.02 35.887,3.956 35.85,3.889 35.811,3.819 35.768,3.747 35.722,3.673 35.673,3.596 35.621,3.519 35.567,3.439 35.51,3.359 35.45,3.277 35.388,3.195 35.323,3.112 35.257,3.028 35.188,2.945 35.117,2.86 35.045,2.776 34.971,2.692 34.895,2.608 34.817,2.525 34.739,2.442 34.659,2.36 34.578,2.278 34.495,2.198 34.412,2.118 34.328,2.04 34.244,1.964 34.159,1.888 34.073,1.815 33.987,1.743 33.901,1.673 33.815,1.605 33.73,1.539 33.644,1.476 33.559,1.415 33.474,1.357 33.391,1.301 33.308,1.248 33.226,1.198 33.145,1.151 33.066,1.107 32.989,1.067 32.914,1.029 32.841,0.996 32.767,0.964 32.736,0.951 32.702,0.939 32.67,0.926 32.638,0.915 32.606,0.905 32.576,0.896 32.547,0.887 32.518,0.879 32.491,0.873 32.464,0.867 32.439,0.861 32.415,0.857 32.392,0.853 32.37,0.85 32.349,0.848 32.33,0.846 32.311,0.845 h -0.013 z"
     style="fill:#94006a"
     id="path8"
     inkscape:connector-curvature="0" /><path
     d="m 29.345,5.988 c 0.658,0.141 1.123,0.573 1.039,0.964 C 30.3,7.343 29.698,7.545 29.04,7.403 28.383,7.262 27.917,6.829 28.001,6.439 28.085,6.048 28.688,5.846 29.345,5.988 Z"
     style="fill:#ffffff"
     id="path10"
     inkscape:connector-curvature="0" /><path
     d="M 28.727,2.546 C 29.105,2.502 29.441,2.72 29.478,3.034 29.514,3.347 29.237,3.637 28.859,3.681 28.481,3.725 28.145,3.506 28.108,3.193 28.072,2.88 28.349,2.59 28.727,2.546 Z"
     style="fill:#ffffff"
     id="path12"
     inkscape:connector-curvature="0" /><path
     d="M 30.578,2.643 C 32.785,2.631 34.435,3.919 34.135,4.834 33.84,5.737 32.517,7.129 30.62,7.119 28.672,7.108 27.079,6.204 26.816,4.626 26.666,3.723 28.679,2.653 30.578,2.643 Z m 0.164,1.223 C 29.016,3.902 27.946,4.203 28.354,5 28.633,5.546 31.77,6.364 32.657,4.837 32.742,4.692 32.367,3.854 30.742,3.866 Z"
     style="fill:#ff5bd0;fill-rule:nonzero"
     id="path14"
     inkscape:connector-curvature="0" /><ellipse
     cx="30.482"
     cy="4.6950002"
     rx="3.687"
     ry="1.268"
     style="fill:#ffffff"
     id="ellipse16" /><path
     d="m 30.577,3.428 0.095,10e-4 0.093,0.002 0.094,0.003 0.092,0.004 0.092,0.004 0.091,0.005 0.091,0.006 0.089,0.007 0.089,0.008 0.088,0.008 0.087,0.009 0.086,0.009 0.085,0.011 0.084,0.011 0.083,0.011 0.083,0.013 0.081,0.013 0.08,0.013 0.079,0.015 0.078,0.015 0.076,0.015 0.076,0.016 0.074,0.017 0.073,0.018 0.071,0.018 0.071,0.018 0.069,0.019 0.067,0.02 0.066,0.02 0.065,0.021 0.064,0.021 0.061,0.022 0.061,0.022 0.058,0.023 0.058,0.023 0.055,0.024 0.054,0.024 0.052,0.025 0.051,0.025 0.049,0.025 0.047,0.026 0.045,0.027 0.044,0.026 0.041,0.027 0.04,0.028 0.038,0.028 0.036,0.028 0.034,0.029 0.032,0.029 0.03,0.029 0.028,0.03 0.026,0.029 0.024,0.031 0.021,0.03 0.02,0.031 0.017,0.031 0.015,0.031 0.013,0.032 0.011,0.032 0.008,0.032 0.006,0.032 0.004,0.033 10e-4,0.032 -10e-4,0.033 -0.004,0.033 -0.006,0.032 -0.008,0.032 -0.011,0.032 -0.013,0.031 -0.015,0.032 -0.017,0.031 -0.02,0.031 -0.021,0.03 -0.024,0.03 -0.026,0.03 -0.028,0.03 -0.03,0.029 L 33.913,5.16 33.879,5.189 33.843,5.217 33.805,5.245 33.765,5.272 33.724,5.299 33.68,5.326 33.635,5.353 33.588,5.378 33.539,5.404 33.488,5.429 33.436,5.454 33.382,5.478 33.327,5.502 33.269,5.525 33.211,5.548 33.15,5.57 33.089,5.592 33.025,5.613 32.96,5.634 32.894,5.654 32.827,5.674 32.758,5.693 32.687,5.711 32.616,5.729 32.543,5.747 32.469,5.763 32.393,5.78 32.317,5.795 32.239,5.81 32.16,5.824 32.08,5.838 31.999,5.851 31.916,5.863 31.833,5.875 31.749,5.886 31.664,5.896 31.578,5.906 31.491,5.915 31.403,5.923 31.314,5.931 31.225,5.937 31.134,5.943 31.043,5.949 30.951,5.953 30.859,5.957 30.765,5.959 30.672,5.962 30.577,5.963 H 30.482 30.387 L 30.292,5.962 30.198,5.959 30.105,5.957 30.013,5.953 29.921,5.949 29.83,5.943 29.739,5.937 29.65,5.931 29.561,5.923 29.473,5.915 29.386,5.906 29.3,5.896 29.215,5.886 29.13,5.875 29.047,5.863 28.965,5.851 28.884,5.838 28.804,5.824 28.725,5.81 28.647,5.795 28.571,5.78 28.495,5.763 28.421,5.747 28.348,5.729 28.276,5.711 28.206,5.693 28.137,5.674 28.07,5.654 28.003,5.634 27.939,5.613 27.875,5.592 27.813,5.57 27.753,5.548 27.694,5.525 27.637,5.502 27.582,5.478 27.528,5.454 27.475,5.429 27.425,5.404 27.376,5.378 27.329,5.353 27.284,5.326 27.24,5.299 27.198,5.272 27.159,5.245 27.121,5.217 27.085,5.189 27.051,5.16 27.019,5.131 26.989,5.102 26.961,5.072 26.935,5.042 26.911,5.012 26.889,4.982 26.87,4.951 26.852,4.92 26.837,4.888 26.824,4.857 26.814,4.825 26.806,4.793 26.8,4.761 26.796,4.728 26.795,4.695 26.796,4.663 26.8,4.63 26.806,4.598 26.814,4.566 26.824,4.534 26.837,4.502 26.852,4.471 26.87,4.44 l 0.019,-0.031 0.022,-0.03 0.024,-0.031 0.026,-0.029 0.028,-0.03 0.03,-0.029 0.032,-0.029 0.034,-0.029 0.036,-0.028 0.038,-0.028 0.039,-0.028 0.042,-0.027 0.044,-0.026 0.045,-0.027 0.047,-0.026 0.049,-0.025 0.05,-0.025 0.053,-0.025 0.054,-0.024 0.055,-0.024 0.057,-0.023 0.059,-0.023 0.06,-0.022 0.062,-0.022 0.064,-0.021 0.064,-0.021 0.067,-0.02 0.067,-0.02 0.069,-0.019 0.07,-0.018 0.072,-0.018 0.073,-0.018 0.074,-0.017 0.076,-0.016 0.076,-0.015 0.078,-0.015 0.079,-0.015 0.08,-0.013 L 28.965,3.54 29.047,3.527 29.13,3.516 29.215,3.505 29.3,3.494 29.386,3.485 29.473,3.476 29.561,3.468 29.65,3.46 29.739,3.453 29.83,3.447 29.921,3.442 30.013,3.438 30.105,3.434 30.198,3.431 30.292,3.429 30.387,3.428 h 0.095 z M 30.392,4.07 30.303,4.071 30.215,4.073 30.128,4.075 30.041,4.079 29.954,4.083 29.869,4.088 29.784,4.093 29.7,4.1 l -0.083,0.007 -0.082,0.007 -0.081,0.009 -0.08,0.009 -0.079,0.009 -0.078,0.01 -0.077,0.011 -0.076,0.012 -0.075,0.012 -0.074,0.012 -0.072,0.013 -0.071,0.014 -0.07,0.014 -0.069,0.015 -0.067,0.015 -0.065,0.016 -0.065,0.016 -0.062,0.017 -0.062,0.017 -0.059,0.017 -0.058,0.018 -0.057,0.018 -0.054,0.018 -0.053,0.018 -0.051,0.019 -0.049,0.019 -0.047,0.019 -0.045,0.02 -0.043,0.019 -0.041,0.019 -0.039,0.02 -0.037,0.019 -0.034,0.019 -0.032,0.018 -0.03,0.019 -0.027,0.017 -0.025,0.017 -0.022,0.017 -0.013,0.01 0.013,0.011 0.022,0.016 0.025,0.018 0.027,0.017 0.03,0.018 0.032,0.019 0.034,0.019 0.037,0.019 0.039,0.019 0.041,0.02 0.043,0.019 0.045,0.019 0.047,0.019 0.049,0.019 0.051,0.019 0.053,0.019 0.054,0.018 0.057,0.018 0.058,0.018 0.059,0.017 0.062,0.017 0.062,0.017 0.065,0.016 0.065,0.015 0.067,0.016 0.069,0.014 0.07,0.015 0.071,0.013 0.072,0.013 0.074,0.013 0.075,0.012 0.076,0.011 0.077,0.011 0.078,0.011 0.079,0.009 0.08,0.009 0.081,0.008 0.082,0.008 0.083,0.007 0.084,0.006 0.085,0.006 0.085,0.005 0.087,0.004 0.087,0.003 0.087,0.003 0.088,0.002 0.089,10e-4 h 0.09 0.089 L 30.66,5.32 30.749,5.318 30.836,5.315 30.923,5.312 31.009,5.308 31.095,5.303 31.179,5.297 31.263,5.291 31.346,5.284 31.428,5.276 31.509,5.268 31.59,5.259 31.669,5.25 31.747,5.239 31.824,5.228 31.9,5.217 31.975,5.205 32.048,5.192 32.121,5.179 32.192,5.166 32.262,5.151 32.33,5.137 32.397,5.121 32.463,5.106 32.527,5.09 32.59,5.073 32.651,5.056 32.711,5.039 32.769,5.021 32.825,5.003 32.88,4.985 32.933,4.966 32.984,4.947 33.033,4.928 33.08,4.909 33.125,4.89 33.168,4.871 33.209,4.851 33.248,4.832 33.284,4.813 33.319,4.794 33.351,4.775 33.38,4.757 33.408,4.74 33.432,4.722 33.455,4.706 33.468,4.695 33.455,4.685 33.432,4.668 33.408,4.651 33.38,4.634 33.351,4.615 33.319,4.597 33.284,4.578 33.248,4.559 33.209,4.539 33.168,4.52 33.125,4.501 33.08,4.481 33.033,4.462 32.984,4.443 32.933,4.424 32.88,4.406 32.825,4.388 32.769,4.37 32.711,4.352 32.651,4.335 32.59,4.318 32.527,4.301 32.463,4.285 32.397,4.269 32.33,4.254 32.262,4.239 32.192,4.225 32.121,4.211 32.048,4.198 31.975,4.186 31.9,4.174 31.824,4.162 31.747,4.151 31.669,4.141 31.59,4.132 31.509,4.123 31.428,4.114 31.346,4.107 31.263,4.1 31.179,4.093 31.095,4.088 31.009,4.083 30.923,4.079 30.836,4.075 30.749,4.073 30.66,4.071 30.571,4.07 30.482,4.069 Z"
     style="fill:#94006a"
     id="path18"
     inkscape:connector-curvature="0" /><path
     d="m 12.998,6.003 h 0.005 v -3.144 0 -0.86 H 16.114983 17.999 v 1 H 14 v 3.004 h 4.009 v 1.003 h -5.011 z m 6.497,-4.016 c 0.593,0.436 1.031,0.874 1.315,1.313 0.243,0.379 0.364,0.775 0.364,1.188 0,0.469 -0.162,0.923 -0.487,1.36 -0.325,0.438 -0.722,0.82 -1.192,1.147 h -0.61 c 0.943,-0.834 1.414,-1.669 1.414,-2.504 0,-0.328 -0.067,-0.655 -0.203,-0.98 -0.11,-0.26 -0.262,-0.51 -0.454,-0.75 C 19.519,2.606 19.267,2.348 18.885,1.987 Z m -7.302,5.008 h -0.61 C 11.113,6.668 10.716,6.286 10.391,5.848 10.066,5.411 9.903,4.957 9.903,4.488 9.903,4.075 10.025,3.679 10.268,3.3 10.552,2.861 10.99,2.423 11.583,1.987 h 0.61 c -0.382,0.361 -0.634,0.619 -0.757,0.774 -0.192,0.24 -0.344,0.49 -0.454,0.75 -0.136,0.325 -0.203,0.652 -0.203,0.98 0,0.835 0.471,1.67 1.414,2.504 z"
     style="fill:none;stroke:#000000;stroke-width:1.5;stroke-linecap:round;stroke-miterlimit:1.5;stroke-dasharray:none"
     id="path20"
     inkscape:connector-curvature="0"
     sodipodi:nodetypes="ccccccccccccccccscccscccccccscccccsc" /><path
     d="m 12.998,6.003 h 0.005 v -3.144 0 -0.86 h 4.996 v 1 H 14 v 3.004 h 4.009 v 1.003 h -5.011 z m 6.497,-4.016 c 0.593,0.436 1.031,0.874 1.315,1.313 0.243,0.379 0.364,0.775 0.364,1.188 0,0.469 -0.162,0.923 -0.487,1.36 -0.325,0.438 -0.722,0.82 -1.192,1.147 h -0.61 c 0.943,-0.834 1.414,-1.669 1.414,-2.504 0,-0.328 -0.067,-0.655 -0.203,-0.98 -0.11,-0.26 -0.262,-0.51 -0.454,-0.75 C 19.519,2.606 19.267,2.348 18.885,1.987 Z m -7.302,5.008 h -0.61 C 11.113,6.668 10.716,6.286 10.391,5.848 10.066,5.411 9.903,4.957 9.903,4.488 9.903,4.075 10.025,3.679 10.268,3.3 10.552,2.861 10.99,2.423 11.583,1.987 h 0.61 c -0.382,0.361 -0.634,0.619 -0.757,0.774 -0.192,0.24 -0.344,0.49 -0.454,0.75 -0.136,0.325 -0.203,0.652 -0.203,0.98 0,0.835 0.471,1.67 1.414,2.504 z"
     style="fill:#ffffff"
     id="path22"
     inkscape:connector-curvature="0" /></svg>