<?xml version="1.0" encoding="UTF-8" standalone="no"?>
<svg
   xmlns:dc="http://purl.org/dc/elements/1.1/"
   xmlns:cc="http://creativecommons.org/ns#"
   xmlns:rdf="http://www.w3.org/1999/02/22-rdf-syntax-ns#"
   xmlns:svg="http://www.w3.org/2000/svg"
   xmlns="http://www.w3.org/2000/svg"
   xmlns:sodipodi="http://sodipodi.sourceforge.net/DTD/sodipodi-0.dtd"
   xmlns:inkscape="http://www.inkscape.org/namespaces/inkscape"
   width="22"
   height="10"
   viewBox="0 0 22 10"
   version="1.1"
   xml:space="preserve"
   style="clip-rule:evenodd;fill-rule:evenodd;stroke-linejoin:round;stroke-miterlimit:1.41420996"
   id="svg21"
   sodipodi:docname="hentai.svg"
   inkscape:version="0.92.3 (2405546, 2018-03-11)"><metadata
     id="metadata27"><rdf:RDF><cc:Work
         rdf:about=""><dc:format>image/svg+xml</dc:format><dc:type
           rdf:resource="http://purl.org/dc/dcmitype/StillImage" /><dc:title></dc:title></cc:Work></rdf:RDF></metadata><defs
     id="defs25" /><sodipodi:namedview
     pagecolor="#ffffff"
     bordercolor="#666666"
     borderopacity="1"
     objecttolerance="10"
     gridtolerance="10"
     guidetolerance="10"
     inkscape:pageopacity="0"
     inkscape:pageshadow="2"
     inkscape:window-width="1920"
     inkscape:window-height="1017"
     id="namedview23"
     showgrid="false"
     units="px"
     inkscape:zoom="13.045455"
     inkscape:cx="11"
     inkscape:cy="5"
     inkscape:window-x="-8"
     inkscape:window-y="-8"
     inkscape:window-maximized="1"
     inkscape:current-layer="svg21" /><g
     id="Layer1"><path
       d="m 13.593,0.001 c 1.241,0.002 1.226,1.481 1.907,1.481 0.674,0 0.675,-1.509 1.748,-1.491 1.745,0.029 4.637,3.226 4.619,4.431 -0.001,0.021 -0.001,0.043 -0.003,0.064 -0.1,1.726 -3.183,5.532 -6.337,5.488 C 12.059,9.925 8.985,6.177 8.924,4.444 8.875,3.058 11.488,-0.003 13.593,0.001 Z"
       style="fill:#d60099"
       id="path2"
       inkscape:connector-curvature="0" /><path
       d="m 17.289,-0.008 0.042,0.003 0.042,0.003 0.042,0.005 0.043,0.006 0.043,0.007 0.043,0.008 0.044,0.009 0.044,0.01 0.044,0.011 0.045,0.012 0.045,0.013 0.045,0.014 0.045,0.015 0.046,0.016 0.046,0.017 0.046,0.017 0.047,0.019 0.093,0.04 0.095,0.044 0.095,0.047 0.095,0.05 0.096,0.053 0.097,0.056 0.096,0.059 0.097,0.062 0.097,0.065 0.097,0.067 0.097,0.069 0.097,0.072 0.096,0.074 0.096,0.076 0.096,0.077 0.095,0.08 0.095,0.081 0.093,0.083 0.093,0.084 0.092,0.086 0.091,0.087 0.09,0.088 0.089,0.089 0.087,0.09 0.086,0.09 0.084,0.091 0.083,0.092 0.082,0.092 0.079,0.092 0.078,0.093 0.075,0.092 0.074,0.093 0.072,0.092 0.069,0.092 0.067,0.091 0.065,0.091 0.062,0.091 0.059,0.089 0.057,0.089 0.054,0.087 0.051,0.087 0.049,0.085 0.045,0.083 0.042,0.083 0.039,0.08 0.035,0.079 0.032,0.077 0.029,0.075 0.025,0.073 0.021,0.071 0.009,0.034 0.008,0.034 0.007,0.034 0.007,0.032 0.005,0.032 0.004,0.032 0.003,0.03 0.003,0.03 0.001,0.03 V 4.422 L 21.864,4.486 21.862,4.527 21.858,4.569 21.852,4.611 21.846,4.654 21.839,4.698 21.831,4.742 21.822,4.787 21.811,4.833 21.8,4.879 21.788,4.926 21.774,4.973 21.76,5.021 21.745,5.07 21.728,5.119 21.693,5.219 21.653,5.321 21.61,5.425 21.563,5.53 21.513,5.637 21.458,5.746 21.401,5.855 21.34,5.966 21.275,6.078 21.208,6.19 21.137,6.304 21.063,6.418 20.985,6.532 20.905,6.647 20.822,6.762 20.736,6.877 20.647,6.992 20.555,7.107 20.46,7.222 20.363,7.336 20.264,7.449 20.162,7.562 20.057,7.673 19.95,7.784 19.841,7.894 19.729,8.002 19.616,8.109 19.5,8.214 19.382,8.318 19.262,8.419 19.14,8.519 19.017,8.617 18.892,8.712 18.765,8.805 18.701,8.851 18.636,8.895 18.571,8.94 18.506,8.983 18.44,9.026 18.374,9.068 18.308,9.11 l -0.067,0.04 -0.067,0.04 -0.068,0.039 -0.067,0.039 -0.068,0.037 -0.069,0.037 -0.068,0.036 -0.069,0.035 -0.07,0.034 -0.069,0.033 -0.07,0.032 -0.07,0.032 -0.07,0.03 -0.071,0.029 -0.071,0.029 -0.071,0.027 -0.071,0.027 -0.071,0.025 -0.072,0.024 -0.072,0.024 -0.072,0.022 -0.072,0.021 -0.072,0.02 L 16.628,9.84 16.555,9.858 16.483,9.875 16.41,9.89 16.336,9.904 16.263,9.917 16.19,9.928 16.117,9.939 16.043,9.948 15.97,9.955 15.896,9.962 15.822,9.967 15.748,9.971 15.674,9.973 15.601,9.974 H 15.527 L 15.445,9.972 15.364,9.969 15.284,9.965 15.203,9.959 15.122,9.952 15.042,9.943 14.962,9.934 14.882,9.923 14.802,9.911 14.722,9.898 14.643,9.883 14.564,9.867 14.485,9.851 14.406,9.833 14.328,9.814 14.25,9.794 14.172,9.772 14.094,9.75 14.017,9.726 13.94,9.702 13.863,9.677 13.787,9.65 13.711,9.623 13.635,9.594 13.559,9.565 13.484,9.534 13.409,9.503 13.335,9.471 13.261,9.438 13.187,9.404 13.114,9.369 13.041,9.333 12.968,9.297 12.896,9.259 12.824,9.221 12.752,9.182 12.681,9.142 12.611,9.102 12.541,9.061 12.471,9.019 12.402,8.976 12.333,8.933 12.264,8.889 12.196,8.845 12.129,8.799 12.062,8.753 11.996,8.707 11.93,8.66 11.864,8.612 11.799,8.564 11.671,8.466 11.545,8.366 11.421,8.264 11.299,8.161 11.179,8.056 11.062,7.949 10.948,7.841 10.836,7.731 10.726,7.621 10.619,7.51 10.515,7.397 10.413,7.284 10.314,7.171 10.218,7.057 10.125,6.943 10.035,6.828 9.948,6.714 9.865,6.599 9.784,6.485 9.706,6.371 9.632,6.257 9.561,6.145 9.494,6.032 9.43,5.921 9.369,5.811 9.312,5.702 9.259,5.594 9.209,5.487 9.163,5.382 9.121,5.279 9.101,5.228 9.083,5.177 9.065,5.127 9.049,5.078 9.033,5.029 9.018,4.98 9.005,4.932 8.992,4.885 8.98,4.838 8.97,4.791 8.96,4.746 8.952,4.701 8.945,4.656 8.938,4.612 8.933,4.569 8.929,4.527 8.926,4.485 8.924,4.444 8.923,4.411 V 4.378 L 8.925,4.344 8.927,4.309 8.93,4.274 8.934,4.239 8.939,4.203 8.945,4.166 8.952,4.129 8.96,4.091 8.978,4.014 8.999,3.935 9.024,3.855 9.052,3.773 9.084,3.69 9.118,3.605 9.156,3.519 9.197,3.432 9.241,3.344 9.287,3.255 9.337,3.165 9.389,3.074 9.444,2.983 9.501,2.891 9.561,2.799 9.624,2.706 9.688,2.614 9.755,2.521 9.825,2.428 9.896,2.336 9.97,2.243 10.045,2.152 10.123,2.06 10.202,1.969 10.283,1.879 10.366,1.79 10.451,1.701 10.537,1.614 10.624,1.528 10.713,1.443 10.804,1.359 10.896,1.277 10.988,1.196 11.083,1.117 11.178,1.04 11.274,0.964 11.371,0.891 11.469,0.82 l 0.098,-0.069 0.1,-0.067 0.1,-0.064 0.1,-0.062 0.101,-0.059 0.102,-0.057 0.102,-0.053 0.102,-0.051 0.102,-0.047 0.051,-0.023 0.052,-0.022 0.051,-0.021 0.051,-0.02 0.051,-0.019 0.052,-0.018 0.051,-0.018 0.051,-0.016 0.051,-0.016 0.051,-0.015 0.051,-0.014 0.051,-0.012 0.051,-0.012 0.051,-0.011 0.051,-0.01 0.05,-0.009 0.051,-0.008 0.05,-0.007 0.05,-0.006 0.05,-0.005 0.05,-0.004 0.05,-0.002 0.05,-0.002 h 0.049 l 0.057,0.001 0.056,0.003 0.053,0.005 0.053,0.008 0.05,0.009 0.049,0.011 0.047,0.012 0.045,0.015 0.045,0.016 0.042,0.017 0.042,0.02 0.04,0.02 0.038,0.022 0.038,0.023 0.036,0.024 0.035,0.026 0.034,0.026 0.033,0.028 0.031,0.029 0.031,0.029 0.03,0.03 0.029,0.031 0.028,0.032 0.027,0.032 0.027,0.033 0.026,0.033 0.049,0.068 0.047,0.069 0.046,0.069 0.043,0.069 0.043,0.069 0.082,0.134 0.04,0.063 0.041,0.062 0.041,0.057 0.021,0.028 0.021,0.027 0.022,0.025 0.022,0.024 0.022,0.023 0.023,0.022 0.023,0.021 0.024,0.019 0.024,0.017 0.025,0.016 0.025,0.015 0.026,0.012 0.027,0.011 0.028,0.009 0.029,0.007 0.029,0.006 0.031,0.003 L 15.5,1.482 15.531,1.481 15.562,1.478 15.591,1.472 15.619,1.465 15.647,1.456 15.674,1.445 15.7,1.432 15.725,1.417 15.75,1.401 15.774,1.383 15.797,1.364 15.82,1.343 15.842,1.321 15.864,1.297 15.886,1.272 15.907,1.247 15.928,1.22 l 0.02,-0.029 0.04,-0.058 0.04,-0.063 0.039,-0.064 0.038,-0.067 0.04,-0.069 0.08,-0.14 0.041,-0.07 0.043,-0.07 0.045,-0.068 0.023,-0.034 0.024,-0.033 0.025,-0.033 0.025,-0.031 0.026,-0.032 0.026,-0.03 0.027,-0.03 0.028,-0.028 0.029,-0.028 0.03,-0.026 0.031,-0.026 0.032,-0.024 0.032,-0.023 0.034,-0.022 0.035,-0.02 0.036,-0.019 0.037,-0.017 0.039,-0.016 0.039,-0.014 0.041,-0.012 0.042,-0.01 0.044,-0.009 0.045,-0.007 0.047,-0.004 0.048,-0.003 h 0.049 z m -0.066,0.87 -0.008,0.001 H 17.209 L 17.205,0.864 H 17.203 17.202 V 0.865 H 17.2 L 17.198,0.867 17.195,0.869 17.19,0.872 17.185,0.877 17.178,0.883 17.17,0.891 17.161,0.9 17.151,0.91 17.141,0.923 17.129,0.937 17.116,0.953 17.103,0.971 17.089,0.99 17.076,1.008 17.044,1.059 17.011,1.111 16.977,1.168 16.901,1.301 16.861,1.372 16.817,1.448 16.769,1.528 16.716,1.611 16.66,1.694 16.625,1.742 16.59,1.787 16.552,1.833 16.511,1.88 16.467,1.927 16.42,1.975 16.367,2.022 16.311,2.069 16.249,2.114 16.183,2.158 16.111,2.2 16.034,2.238 15.952,2.272 15.866,2.301 15.777,2.324 15.685,2.34 15.593,2.35 15.5,2.353 15.408,2.35 15.317,2.34 15.227,2.325 15.139,2.302 15.054,2.275 14.973,2.242 14.896,2.205 14.825,2.165 14.758,2.122 14.696,2.077 14.64,2.032 14.587,1.986 14.539,1.94 14.495,1.894 14.454,1.848 14.416,1.803 14.381,1.759 14.346,1.713 14.289,1.633 14.236,1.553 14.186,1.475 14.101,1.336 14.061,1.271 14.023,1.212 13.988,1.157 13.954,1.108 13.919,1.06 13.906,1.043 13.891,1.025 13.877,1.008 13.863,0.993 13.85,0.979 13.837,0.966 13.826,0.955 13.814,0.944 13.804,0.936 13.794,0.928 13.784,0.921 13.775,0.915 13.767,0.91 13.759,0.905 13.75,0.901 13.742,0.897 13.733,0.893 13.724,0.89 13.713,0.886 13.702,0.883 13.688,0.88 13.674,0.878 13.657,0.875 13.638,0.873 13.616,0.872 H 13.588 13.562 L 13.531,0.873 13.5,0.874 13.469,0.877 13.437,0.88 13.404,0.884 13.371,0.888 13.337,0.894 13.303,0.9 13.268,0.907 13.232,0.914 13.196,0.923 13.16,0.932 13.123,0.942 13.086,0.953 13.048,0.964 13.01,0.977 12.971,0.99 12.932,1.004 12.893,1.019 12.853,1.034 12.813,1.05 12.773,1.068 12.735,1.084 12.65,1.123 12.568,1.164 12.484,1.208 12.4,1.255 12.315,1.305 12.23,1.357 12.145,1.412 12.06,1.469 11.975,1.528 11.89,1.59 11.805,1.654 11.721,1.72 11.637,1.788 11.554,1.858 11.472,1.93 11.39,2.003 11.31,2.077 11.231,2.153 11.153,2.23 11.076,2.308 11,2.387 10.926,2.467 10.854,2.547 10.783,2.628 10.714,2.71 10.647,2.791 10.581,2.873 10.518,2.955 10.457,3.037 10.398,3.118 10.341,3.199 10.287,3.28 10.235,3.359 10.186,3.438 10.14,3.515 10.096,3.591 10.055,3.666 10.017,3.739 9.982,3.81 9.949,3.879 9.92,3.945 9.894,4.008 9.872,4.069 9.852,4.126 9.835,4.179 9.822,4.229 9.81,4.278 9.807,4.294 9.803,4.314 9.8,4.331 9.798,4.348 9.796,4.363 9.795,4.376 v 0.012 l -10e-4,0.01 v 0.009 0.007 l 10e-4,0.018 0.002,0.02 0.002,0.022 0.003,0.024 0.003,0.025 0.005,0.026 0.005,0.028 0.006,0.029 0.007,0.031 0.008,0.031 0.008,0.033 0.01,0.035 0.011,0.035 0.011,0.036 0.013,0.037 0.013,0.038 0.015,0.039 0.014,0.038 0.034,0.085 0.038,0.085 0.041,0.088 0.044,0.09 0.049,0.093 0.052,0.094 0.055,0.097 0.059,0.097 0.062,0.099 0.066,0.101 0.068,0.101 0.072,0.101 0.075,0.103 0.078,0.103 0.081,0.103 0.084,0.103 0.087,0.103 0.089,0.102 0.092,0.103 0.095,0.102 0.097,0.101 0.1,0.1 0.101,0.099 0.104,0.098 0.107,0.097 0.108,0.095 0.11,0.094 0.112,0.092 0.114,0.091 0.118,0.089 0.057,0.042 0.059,0.043 0.059,0.043 0.06,0.041 0.06,0.041 0.06,0.041 0.061,0.04 0.061,0.039 0.061,0.039 0.062,0.038 0.062,0.037 0.063,0.037 0.062,0.036 0.063,0.035 0.063,0.034 0.064,0.034 0.064,0.033 0.063,0.032 0.065,0.031 0.064,0.031 0.065,0.03 0.064,0.029 0.065,0.028 0.065,0.027 0.066,0.026 0.065,0.026 0.066,0.024 0.065,0.024 0.066,0.023 0.066,0.022 0.066,0.021 0.066,0.02 0.066,0.019 0.066,0.018 0.067,0.017 0.066,0.016 0.067,0.015 0.066,0.014 0.067,0.014 0.066,0.012 0.067,0.011 0.066,0.01 0.067,0.009 0.067,0.008 0.066,0.007 0.067,0.006 0.067,0.004 0.066,0.004 0.067,0.003 0.066,10e-4 h 0.058 0.058 l 0.058,-0.002 0.057,-0.003 0.059,-0.004 0.058,-0.005 0.058,-0.007 0.059,-0.007 0.058,-0.008 0.059,-0.009 0.059,-0.011 0.059,-0.011 0.059,-0.012 0.06,-0.014 0.059,-0.014 0.06,-0.016 0.059,-0.016 0.06,-0.018 0.06,-0.018 0.06,-0.019 0.06,-0.021 0.06,-0.021 0.06,-0.022 0.06,-0.023 0.06,-0.025 0.06,-0.025 0.061,-0.026 0.06,-0.026 0.06,-0.028 0.06,-0.029 0.059,-0.029 0.06,-0.031 0.06,-0.031 0.06,-0.032 0.059,-0.033 0.059,-0.033 0.06,-0.034 0.059,-0.036 0.059,-0.035 0.058,-0.037 0.059,-0.037 0.058,-0.038 0.058,-0.039 0.058,-0.04 0.058,-0.04 0.055,-0.039 0.116,-0.085 0.112,-0.085 0.111,-0.088 0.11,-0.09 0.109,-0.092 0.106,-0.094 0.105,-0.096 0.104,-0.097 0.101,-0.098 0.1,-0.1 0.097,-0.101 0.095,-0.101 0.093,-0.103 0.091,-0.103 0.088,-0.104 0.086,-0.104 0.083,-0.104 0.081,-0.104 0.077,-0.104 0.075,-0.103 0.072,-0.103 0.069,-0.103 0.066,-0.101 0.063,-0.101 0.06,-0.099 0.056,-0.098 0.053,-0.095 0.049,-0.095 0.046,-0.091 0.042,-0.09 0.039,-0.087 0.035,-0.084 0.031,-0.08 0.029,-0.08 0.011,-0.034 0.011,-0.036 0.011,-0.035 0.009,-0.034 0.009,-0.033 0.008,-0.031 0.006,-0.03 0.006,-0.028 0.005,-0.028 0.005,-0.025 0.003,-0.024 0.003,-0.023 0.002,-0.02 0.001,-0.016 10e-4,-0.028 -10e-4,-0.003 V 4.401 L 20.993,4.393 20.991,4.382 20.988,4.369 20.985,4.355 20.982,4.343 20.969,4.301 20.954,4.257 20.936,4.209 20.914,4.156 20.888,4.099 20.859,4.038 20.826,3.973 20.79,3.906 20.75,3.836 20.707,3.764 20.661,3.69 20.612,3.614 20.561,3.536 20.506,3.457 20.449,3.376 20.389,3.295 20.327,3.212 20.263,3.129 20.196,3.046 20.127,2.962 20.057,2.878 19.984,2.793 19.91,2.709 19.834,2.625 19.757,2.542 19.678,2.459 19.598,2.377 19.517,2.295 19.435,2.215 19.352,2.136 19.268,2.057 19.183,1.981 19.098,1.905 19.013,1.832 18.927,1.76 18.841,1.69 18.755,1.622 18.669,1.556 18.583,1.493 18.498,1.432 18.414,1.374 18.33,1.318 18.247,1.265 18.165,1.215 18.085,1.168 18.006,1.124 17.929,1.084 17.853,1.047 17.78,1.013 17.707,0.981 17.675,0.969 17.642,0.956 17.609,0.944 17.577,0.932 17.546,0.922 17.515,0.913 17.486,0.904 17.457,0.897 17.43,0.89 17.404,0.884 17.378,0.879 17.354,0.874 17.331,0.87 17.309,0.868 17.288,0.865 17.269,0.864 17.251,0.863 17.237,0.862 Z"
       style="fill:#94006a"
       id="path4"
       inkscape:connector-curvature="0" /><path
       d="m 14.284,6.005 c 0.658,0.141 1.124,0.574 1.039,0.964 C 15.239,7.36 14.637,7.562 13.979,7.421 13.322,7.279 12.856,6.847 12.94,6.456 13.025,6.065 13.627,5.863 14.284,6.005 Z"
       style="fill:#ffffff"
       id="path6"
       inkscape:connector-curvature="0" /><path
       d="M 13.666,2.563 C 14.044,2.519 14.38,2.737 14.417,3.051 14.453,3.364 14.176,3.654 13.798,3.698 13.421,3.742 13.084,3.524 13.048,3.21 13.011,2.897 13.288,2.607 13.666,2.563 Z"
       style="fill:#ffffff"
       id="path8"
       inkscape:connector-curvature="0" /></g><path
     d="M 15.517,2.66 C 17.724,2.648 19.374,3.936 19.075,4.851 18.779,5.754 17.456,7.146 15.56,7.136 13.611,7.125 12.018,6.221 11.755,4.643 11.605,3.74 13.618,2.67 15.517,2.66 Z m 0.164,1.223 c -1.726,0.036 -2.796,0.337 -2.388,1.134 0.279,0.546 3.416,1.364 4.303,-0.162 0.085,-0.146 -0.29,-0.983 -1.915,-0.972 z"
     style="fill:#ff5bd0;fill-rule:nonzero"
     id="path11"
     inkscape:connector-curvature="0" /><ellipse
     cx="15.421"
     cy="4.7129998"
     rx="3.687"
     ry="1.268"
     style="fill:#ffffff"
     id="ellipse13" /><path
     d="m 15.516,3.445 0.095,0.001 0.094,0.002 0.093,0.003 0.092,0.004 0.092,0.004 0.091,0.006 0.091,0.006 0.089,0.006 0.089,0.008 0.088,0.008 0.087,0.009 0.086,0.009 0.085,0.011 0.085,0.011 0.083,0.011 0.082,0.013 0.081,0.013 0.08,0.014 0.079,0.014 0.078,0.015 0.076,0.015 0.076,0.017 0.074,0.016 0.073,0.018 0.072,0.018 0.07,0.018 0.069,0.019 0.068,0.02 0.066,0.02 0.064,0.021 0.064,0.021 0.062,0.022 0.06,0.022 0.059,0.023 0.057,0.023 0.055,0.024 0.054,0.024 0.053,0.025 0.05,0.025 0.049,0.025 0.047,0.026 0.045,0.027 0.044,0.026 0.042,0.028 0.039,0.027 0.038,0.028 0.036,0.028 0.034,0.029 0.032,0.029 0.03,0.029 0.028,0.03 0.026,0.03 0.024,0.03 0.022,0.03 0.019,0.031 0.018,0.031 0.015,0.032 0.013,0.031 0.01,0.032 0.008,0.032 0.006,0.032 0.004,0.033 0.001,0.033 -0.001,0.032 -0.004,0.033 -0.006,0.032 -0.008,0.032 -0.01,0.032 -0.013,0.031 -0.015,0.032 -0.018,0.031 -0.019,0.031 -0.022,0.03 -0.024,0.03 -0.026,0.03 -0.028,0.03 -0.03,0.029 L 18.852,5.177 18.818,5.206 18.782,5.234 18.744,5.262 18.705,5.289 18.663,5.317 18.619,5.343 18.574,5.37 18.527,5.396 18.478,5.421 18.428,5.446 18.375,5.471 18.321,5.495 18.266,5.519 18.209,5.542 18.15,5.565 18.09,5.587 18.028,5.609 17.964,5.63 17.9,5.651 17.834,5.671 17.766,5.691 17.697,5.71 17.627,5.728 17.555,5.746 17.482,5.764 17.408,5.78 17.332,5.797 17.256,5.812 17.178,5.827 17.099,5.842 17.019,5.855 16.938,5.868 16.856,5.881 16.773,5.892 16.688,5.903 16.603,5.914 16.517,5.923 16.43,5.932 16.342,5.94 16.253,5.948 16.164,5.955 16.073,5.96 15.982,5.966 15.89,5.97 15.798,5.974 15.705,5.977 15.611,5.979 15.516,5.98 H 15.421 15.326 L 15.232,5.979 15.138,5.977 15.044,5.974 14.952,5.97 14.86,5.966 14.769,5.96 14.678,5.955 14.589,5.948 14.5,5.94 14.412,5.932 14.325,5.923 14.239,5.914 14.154,5.903 14.07,5.892 13.987,5.881 13.904,5.868 13.823,5.855 13.743,5.842 13.664,5.827 13.586,5.812 13.51,5.797 13.434,5.78 13.36,5.764 13.287,5.746 13.216,5.728 13.145,5.71 13.076,5.691 13.009,5.671 12.943,5.651 12.878,5.63 12.815,5.609 12.753,5.587 12.692,5.565 12.634,5.542 12.576,5.519 12.521,5.495 12.467,5.471 12.415,5.446 12.364,5.421 12.315,5.396 12.268,5.37 12.223,5.343 12.179,5.317 12.138,5.289 12.098,5.262 12.06,5.234 12.024,5.206 11.99,5.177 11.958,5.148 11.928,5.119 11.9,5.089 11.874,5.059 11.85,5.029 11.829,4.999 11.809,4.968 11.792,4.937 11.777,4.905 11.764,4.874 11.753,4.842 11.745,4.81 11.739,4.778 11.735,4.745 11.734,4.713 11.735,4.68 11.739,4.647 11.745,4.615 11.753,4.583 11.764,4.551 11.777,4.52 11.792,4.488 11.809,4.457 11.829,4.426 11.85,4.396 11.874,4.366 11.9,4.336 11.928,4.306 11.958,4.277 11.99,4.248 12.024,4.219 12.06,4.191 12.098,4.163 12.138,4.136 12.179,4.108 12.223,4.082 12.268,4.055 12.315,4.029 12.364,4.004 12.415,3.979 12.467,3.954 12.521,3.93 12.576,3.906 12.634,3.883 12.692,3.86 12.753,3.838 12.815,3.816 12.878,3.795 12.943,3.774 13.009,3.754 13.076,3.734 13.145,3.715 13.216,3.697 13.287,3.679 13.36,3.661 13.434,3.645 13.51,3.628 13.586,3.613 13.664,3.598 13.743,3.584 13.823,3.57 13.904,3.557 13.987,3.544 14.07,3.533 14.154,3.522 14.239,3.511 14.325,3.502 14.412,3.493 14.5,3.485 14.589,3.477 14.678,3.471 14.769,3.465 14.86,3.459 14.952,3.455 15.044,3.451 15.138,3.448 15.232,3.446 15.326,3.445 h 0.095 z M 15.332,4.087 15.243,4.088 15.154,4.09 15.067,4.093 14.98,4.096 14.894,4.1 14.808,4.105 14.724,4.111 14.64,4.117 14.557,4.124 14.475,4.132 14.394,4.14 14.313,4.149 14.234,4.158 14.156,4.169 14.079,4.179 14.003,4.191 13.928,4.203 13.855,4.215 13.782,4.229 13.711,4.242 13.641,4.256 13.573,4.271 13.506,4.286 13.44,4.302 13.376,4.318 13.313,4.335 13.252,4.352 13.192,4.369 13.134,4.387 13.078,4.405 13.023,4.423 12.97,4.442 12.919,4.46 12.87,4.479 l -0.047,0.02 -0.045,0.019 -0.043,0.019 -0.041,0.02 -0.039,0.019 -0.036,0.019 -0.035,0.019 -0.032,0.018 -0.029,0.019 -0.028,0.017 -0.024,0.017 -0.023,0.017 -0.013,0.011 0.013,0.01 0.023,0.017 0.024,0.017 0.028,0.017 0.029,0.019 0.032,0.018 0.035,0.019 0.036,0.019 0.039,0.02 0.041,0.019 0.043,0.019 0.045,0.019 0.047,0.02 0.049,0.019 0.051,0.018 0.053,0.019 0.055,0.018 0.056,0.018 0.058,0.018 0.06,0.017 0.061,0.017 0.063,0.017 0.064,0.016 0.066,0.016 0.067,0.015 0.068,0.015 0.07,0.014 0.071,0.013 0.073,0.014 0.073,0.012 0.075,0.012 0.076,0.012 0.077,0.01 0.078,0.011 0.079,0.009 0.081,0.009 0.081,0.009 0.082,0.007 0.083,0.007 0.084,0.006 0.084,0.006 0.086,0.005 0.086,0.004 0.087,0.003 0.087,0.003 0.089,0.002 0.089,0.001 0.089,0.001 0.09,-0.001 L 15.6,5.337 15.688,5.335 15.775,5.332 15.862,5.329 15.949,5.325 16.034,5.32 16.119,5.314 16.203,5.308 16.286,5.301 16.368,5.294 16.449,5.285 16.529,5.276 16.608,5.267 16.686,5.256 16.763,5.246 16.839,5.234 16.914,5.222 16.988,5.21 17.06,5.196 17.131,5.183 17.201,5.169 17.27,5.154 17.337,5.139 17.402,5.123 17.467,5.107 17.529,5.09 17.591,5.073 17.65,5.056 17.708,5.038 17.765,5.02 17.819,5.002 17.872,4.983 17.923,4.965 17.972,4.946 18.019,4.926 18.064,4.907 18.107,4.888 18.148,4.869 18.187,4.849 18.224,4.83 18.258,4.811 18.29,4.793 18.32,4.774 18.347,4.757 18.372,4.74 18.394,4.723 18.407,4.713 18.394,4.702 18.372,4.685 18.347,4.668 18.32,4.651 18.29,4.632 18.258,4.614 18.224,4.595 18.187,4.576 18.148,4.557 18.107,4.537 18.064,4.518 18.019,4.499 17.972,4.479 17.923,4.46 17.872,4.442 17.819,4.423 17.765,4.405 17.708,4.387 17.65,4.369 17.591,4.352 17.529,4.335 17.467,4.318 17.402,4.302 17.337,4.286 17.27,4.271 17.201,4.256 17.131,4.242 17.06,4.229 16.988,4.215 16.914,4.203 16.839,4.191 16.763,4.179 16.686,4.169 16.608,4.158 16.529,4.149 16.449,4.14 16.368,4.132 16.286,4.124 16.203,4.117 16.119,4.111 16.034,4.105 15.949,4.1 15.862,4.096 15.775,4.093 15.688,4.09 15.6,4.088 15.511,4.087 15.421,4.086 Z"
     style="fill:#94006a"
     id="path15"
     inkscape:connector-curvature="0" /><path
     d="m 6.001,3.995 h 10e-4 c 0,0.334 0.001,0.667 0.001,1 H 6.002 l 0.002,2.003 -1,10e-4 -0.002,-2.003 -3,0.003 0.002,1.999 -1,10e-4 L 1.002,5 V 5 L 1.001,4 v 0 l -0.002,-2.002 1,-10e-4 0.002,2.002 3,-0.003 -0.002,-1.998 1,-10e-4 z"
     style="fill:none;stroke:#000000;stroke-width:1.5;stroke-miterlimit:1.41420996;stroke-dasharray:none"
     id="path17"
     inkscape:connector-curvature="0" /><path
     d="m 6.001,3.995 h 10e-4 c 0,0.334 0.001,0.667 0.001,1 H 6.002 l 0.002,2.003 -1,10e-4 -0.002,-2.003 -3,0.003 0.002,1.999 -1,10e-4 L 1.002,5 V 5 L 1.001,4 v 0 l -0.002,-2.002 1,-10e-4 0.002,2.002 3,-0.003 -0.002,-1.998 1,-10e-4 z"
     style="fill:#ff00c6;fill-rule:nonzero"
     id="path19"
     inkscape:connector-curvature="0" /></svg>