<?xml version="1.0" encoding="UTF-8" standalone="no"?>
<svg
   xmlns:dc="http://purl.org/dc/elements/1.1/"
   xmlns:cc="http://creativecommons.org/ns#"
   xmlns:rdf="http://www.w3.org/1999/02/22-rdf-syntax-ns#"
   xmlns:svg="http://www.w3.org/2000/svg"
   xmlns="http://www.w3.org/2000/svg"
   xmlns:sodipodi="http://sodipodi.sourceforge.net/DTD/sodipodi-0.dtd"
   xmlns:inkscape="http://www.inkscape.org/namespaces/inkscape"
   width="13.097987"
   height="11.310013"
   viewBox="0 0 13.097987 11.310013"
   version="1.1"
   xml:space="preserve"
   style="clip-rule:evenodd;fill-rule:evenodd;stroke-linecap:round;stroke-linejoin:round;stroke-miterlimit:1.5"
   id="svg23"
   sodipodi:docname="irc_offline.svg"
   inkscape:version="0.92.3 (2405546, 2018-03-11)"><metadata
     id="metadata27"><rdf:RDF><cc:Work
         rdf:about=""><dc:format>image/svg+xml</dc:format><dc:type
           rdf:resource="http://purl.org/dc/dcmitype/StillImage" /><dc:title></dc:title></cc:Work></rdf:RDF></metadata><sodipodi:namedview
     pagecolor="#ffffff"
     bordercolor="#666666"
     borderopacity="1"
     objecttolerance="10"
     gridtolerance="10"
     guidetolerance="10"
     inkscape:pageopacity="0"
     inkscape:pageshadow="2"
     inkscape:window-width="1920"
     inkscape:window-height="1017"
     id="namedview25"
     showgrid="false"
     inkscape:zoom="14.75"
     inkscape:cx="6.5697744"
     inkscape:cy="5.7050141"
     inkscape:window-x="-8"
     inkscape:window-y="-8"
     inkscape:window-maximized="1"
     inkscape:current-layer="svg23" /><path
     d="m 3.1447744,11.234999 c -0.167,0.027 -0.052,-2.3520003 -0.165,-2.5500003 -0.378,-0.664 -1.103,-0.358 -2.21899999,-1.599 -1.116,-1.24 -0.636,-3.603 -0.191,-4.341 0.72899999,-1.21 1.46599999,-1.75099997 3.15399999,-2.36999997 1.247,-0.457 4.292,-0.31 5.416,-0.096 0.9109996,0.172 0.9859996,0.207 1.4329996,0.427 1.215,0.59699997 1.993,1.62899997 2.299,2.54099997 0.305,0.911 0.116,2.051 -0.3,2.861 -0.358,0.695 -0.805,1.3 -1.108,1.557 -0.454,0.385 -1.43,0.979 -2.8339996,1.208 -1.125,0.183 -2.935,-0.086 -3.404,-0.133 -0.623,-0.062 -1.684,2.4290003 -2.081,2.4950003 z"
     style="fill:none"
     id="path2"
     inkscape:connector-curvature="0" /><clipPath
     id="_clip1"><path
       d="M 4.575,13.63 C 4.408,13.657 4.523,11.278 4.41,11.08 4.032,10.416 3.307,10.722 2.191,9.481 1.075,8.241 1.555,5.878 2,5.14 2.729,3.93 3.466,3.389 5.154,2.77 6.401,2.313 9.446,2.46 10.57,2.674 c 0.911,0.172 0.986,0.207 1.433,0.427 1.215,0.597 1.993,1.629 2.299,2.541 0.305,0.911 0.116,2.051 -0.3,2.861 -0.358,0.695 -0.805,1.3 -1.108,1.557 -0.454,0.385 -1.43,0.979 -2.834,1.208 C 8.935,11.451 7.125,11.182 6.656,11.135 6.033,11.073 4.972,13.564 4.575,13.63 Z"
       id="path4"
       inkscape:connector-curvature="0" /></clipPath><g
     clip-path="url(#_clip1)"
     id="g12"
     transform="translate(-1.4302256,-2.3950013)"><g
       id="Layer1"><rect
         x="1.064"
         y="1.962"
         width="13.914"
         height="12.591"
         style="fill:#878787"
         id="rect7" /></g><ellipse
       cx="10.462"
       cy="10.685"
       rx="6.665"
       ry="5.0929999"
       style="fill:url(#_Linear2)"
       id="ellipse10" /></g><path
     d="m 3.1447744,11.234999 c -0.167,0.027 -0.052,-2.3520003 -0.165,-2.5500003 -0.378,-0.664 -1.103,-0.358 -2.21899999,-1.599 -1.116,-1.24 -0.636,-3.603 -0.191,-4.341 0.72899999,-1.21 1.46599999,-1.75099997 3.15399999,-2.36999997 1.247,-0.457 4.292,-0.31 5.416,-0.096 0.9109996,0.172 0.9859996,0.207 1.4329996,0.427 1.215,0.59699997 1.993,1.62899997 2.299,2.54099997 0.305,0.911 0.116,2.051 -0.3,2.861 -0.358,0.695 -0.805,1.3 -1.108,1.557 -0.454,0.385 -1.43,0.979 -2.8339996,1.208 -1.125,0.183 -2.935,-0.086 -3.404,-0.133 -0.623,-0.062 -1.684,2.4290003 -2.081,2.4950003 z"
     style="fill:none;stroke:#000000;stroke-width:0.15000001;stroke-miterlimit:1.5;stroke-dasharray:none"
     id="path14"
     inkscape:connector-curvature="0" /><defs
     id="defs21"><linearGradient
       id="_Linear2"
       x1="0"
       y1="0"
       x2="1"
       y2="0"
       gradientUnits="userSpaceOnUse"
       gradientTransform="matrix(13.3292,0,0,10.1866,3.79766,10.6852)"><stop
         offset="0"
         style="stop-color:#656565;stop-opacity:1"
         id="stop16" /><stop
         offset="1"
         style="stop-color:#878787;stop-opacity:1"
         id="stop18" /></linearGradient></defs></svg>