<?xml version="1.0" encoding="UTF-8" ?>
<!DOCTYPE svg PUBLIC "-//W3C//DTD SVG 1.1//EN" "http://www.w3.org/Graphics/SVG/1.1/DTD/svg11.dtd">
<svg width="734pt" height="524pt" viewBox="0 0 734 524" version="1.1" xmlns="http://www.w3.org/2000/svg">
<g id="#000000ff">
<path fill="#000000" opacity="1.00" d=" M 223.03 0.00 L 606.98 0.00 C 642.32 3.71 679.50 15.93 702.21 44.84 C 716.06 62.13 722.94 84.12 724.34 106.03 C 727.21 138.66 721.83 173.74 701.12 200.10 C 682.72 224.50 654.69 238.03 629.01 253.17 C 650.56 255.95 672.61 261.26 690.10 274.88 C 714.00 292.45 726.95 321.27 731.12 350.02 C 735.05 376.31 734.41 403.71 726.16 429.15 C 718.66 453.09 703.87 474.58 684.42 490.39 C 661.90 508.91 633.86 520.03 605.09 524.00 L 329.00 524.00 C 328.98 477.34 329.04 430.69 328.97 384.03 C 291.33 383.94 253.69 384.05 216.05 383.98 C 227.34 354.98 238.61 325.97 250.07 297.04 C 276.37 296.92 302.67 297.07 328.97 296.97 C 329.02 226.32 329.02 155.68 328.97 85.03 C 313.00 84.98 297.04 84.96 281.07 85.04 C 230.53 208.92 180.30 332.93 129.88 456.86 C 120.61 479.21 111.97 501.83 102.31 524.00 L 0.51 524.00 C 74.68 349.33 148.82 174.65 223.03 0.00 M 427.02 84.02 C 426.99 203.01 426.99 321.99 427.02 440.98 C 474.35 441.01 521.69 441.02 569.02 440.98 C 584.47 440.85 600.65 436.00 611.43 424.44 C 623.13 412.09 627.19 394.57 627.70 378.01 C 627.93 363.26 627.10 347.89 620.48 334.41 C 613.81 320.16 601.21 309.36 587.01 302.97 C 560.22 291.02 529.89 289.83 501.09 292.64 C 500.91 271.79 501.00 250.93 501.04 230.08 C 524.20 224.62 547.62 219.32 569.42 209.53 C 582.66 203.38 595.69 195.45 604.33 183.39 C 614.47 169.90 617.99 152.99 621.80 136.90 C 624.30 126.49 624.32 114.81 618.60 105.42 C 607.74 88.63 585.91 83.13 567.00 84.00 C 520.34 84.01 473.68 83.97 427.02 84.02 Z" />
</g>
</svg>
