<?xml version="1.0" encoding="UTF-8" standalone="no"?>
<svg
   xmlns:dc="http://purl.org/dc/elements/1.1/"
   xmlns:cc="http://creativecommons.org/ns#"
   xmlns:rdf="http://www.w3.org/1999/02/22-rdf-syntax-ns#"
   xmlns:svg="http://www.w3.org/2000/svg"
   xmlns="http://www.w3.org/2000/svg"
   xmlns:sodipodi="http://sodipodi.sourceforge.net/DTD/sodipodi-0.dtd"
   xmlns:inkscape="http://www.inkscape.org/namespaces/inkscape"
   width="12.000183"
   height="15.015"
   viewBox="0 0 12.000183 15.015"
   version="1.1"
   xml:space="preserve"
   style="clip-rule:evenodd;fill-rule:evenodd;stroke-linecap:round;stroke-linejoin:round;stroke-miterlimit:1.5"
   id="svg4"
   sodipodi:docname="snatched.svg"
   inkscape:version="0.92.3 (2405546, 2018-03-11)"><metadata
     id="metadata10"><rdf:RDF><cc:Work
         rdf:about=""><dc:format>image/svg+xml</dc:format><dc:type
           rdf:resource="http://purl.org/dc/dcmitype/StillImage" /></cc:Work></rdf:RDF></metadata><defs
     id="defs8" /><sodipodi:namedview
     pagecolor="#ffffff"
     bordercolor="#666666"
     borderopacity="1"
     objecttolerance="10"
     gridtolerance="10"
     guidetolerance="10"
     inkscape:pageopacity="0"
     inkscape:pageshadow="2"
     inkscape:window-width="1920"
     inkscape:window-height="1017"
     id="namedview6"
     showgrid="false"
     inkscape:zoom="11.313709"
     inkscape:cx="-14.735482"
     inkscape:cy="-5.3010883"
     inkscape:window-x="-8"
     inkscape:window-y="-8"
     inkscape:window-maximized="1"
     inkscape:current-layer="svg4" /><path
     d="m 6.4647338,14.582002 c 0,0 2.1745499,-2.832805 2.6422579,-5.1921284 C 9.3853067,7.9867516 7.8805589,7.2280264 7.7038695,7.1506526 6.5940751,6.6656228 5.5685834,6.857325 5.5674286,6.885041 5.5374029,9.7882905 5.5604996,9.8113875 5.5604996,9.8113875 L 0.43304143,5.3664357 5.5708931,0.43298947 c 0,0 -0.057742,0.4515397 0.00115,3.26817723 0,0.00693 1.7334042,-0.036955 3.6723686,1.0347302 0.8996153,0.4965782 2.1941823,1.1259621 2.3096663,2.986398 0.108554,1.7426429 -0.427288,3.0984161 -1.6791273,4.5685181 -1.07284,1.258768 -3.4102217,2.291189 -3.4102217,2.291189 z"
     style="fill:#747474;stroke:#747474;stroke-width:0.86612469px"
     id="path2"
     inkscape:connector-curvature="0" /></svg>