<?xml version="1.0" encoding="UTF-8"?>
<svg width="728px" height="242px" viewBox="0 0 728 242" version="1.1" xmlns="http://www.w3.org/2000/svg" xmlns:xlink="http://www.w3.org/1999/xlink">
    <!-- Generator: Sketch 52.5 (67469) - http://www.bohemiancoding.com/sketch -->
    <title>animebytes</title>
    <desc>Created with Sketch.</desc>
    <g id="animebytes" stroke="none" stroke-width="1" fill="none" fill-rule="evenodd">
        <path d="M53.375,149 L70.375,149 L70.375,217 L53.375,217 L53.375,209.8125 C50.04165,212.979183 46.6979334,215.26041 43.34375,216.65625 C39.9895666,218.05209 36.3541862,218.75 32.4375,218.75 C23.6457894,218.75 16.0416988,215.343784 9.625,208.53125 C3.20830125,201.718716 0,193.250051 0,183.125 C0,172.624947 3.10413562,164.020867 9.3125,157.3125 C15.5208644,150.604133 23.0624556,147.25 31.9375,147.25 C36.0208538,147.25 39.8541488,148.020826 43.4375,149.5625 C47.0208512,151.104174 50.3333181,153.416651 53.375,156.5 L53.375,149 Z M35.4375,163 C30.1458069,163 25.7500175,164.864565 22.25,168.59375 C18.7499825,172.322935 17,177.104138 17,182.9375 C17,188.812529 18.7812322,193.645814 22.34375,197.4375 C25.9062678,201.229186 30.2916406,203.125 35.5,203.125 C40.8750269,203.125 45.3333156,201.260435 48.875,197.53125 C52.4166844,193.802065 54.1875,188.916697 54.1875,182.875 C54.1875,176.958304 52.4166844,172.166685 48.875,168.5 C45.3333156,164.833315 40.8541938,163 35.4375,163 Z M84.625,149 L101.625,149 L101.625,155.9375 C105.500019,152.687484 109.010401,150.42709 112.15625,149.15625 C115.302099,147.88541 118.520817,147.25 121.8125,147.25 C128.562534,147.25 134.291643,149.604143 139,154.3125 C142.958353,158.31252 144.9375,164.229128 144.9375,172.0625 L144.9375,217 L128.0625,217 L128.0625,187.1875 C128.0625,179.062459 127.69792,173.66668 126.96875,171 C126.23958,168.33332 124.968759,166.30209 123.15625,164.90625 C121.343741,163.51041 119.10418,162.8125 116.4375,162.8125 C112.979149,162.8125 110.010429,163.968738 107.53125,166.28125 C105.052071,168.593762 103.333338,171.791646 102.375,175.875 C101.874998,178.000011 101.625,182.604131 101.625,189.6875 L101.625,217 L84.625,217 L84.625,149 Z M168.125,121 C171.125015,121 173.697906,122.083323 175.84375,124.25 C177.989594,126.416677 179.0625,129.041651 179.0625,132.125 C179.0625,135.166682 178.000011,137.760406 175.875,139.90625 C173.749989,142.052094 171.208348,143.125 168.25,143.125 C165.208318,143.125 162.614594,142.031261 160.46875,139.84375 C158.322906,137.656239 157.25,135.000016 157.25,131.875 C157.25,128.874985 158.312489,126.312511 160.4375,124.1875 C162.562511,122.062489 165.124985,121 168.125,121 Z M159.5625,149 L176.6875,149 L176.6875,217 L159.5625,217 L159.5625,149 Z M192,149 L209.125,149 L209.125,156.8125 C212.041681,153.604151 215.281232,151.208341 218.84375,149.625 C222.406268,148.041659 226.291646,147.25 230.5,147.25 C234.750021,147.25 238.583316,148.291656 242,150.375 C245.416684,152.458344 248.166656,155.49998 250.25,159.5 C252.958347,155.49998 256.28123,152.458344 260.21875,150.375 C264.15627,148.291656 268.45831,147.25 273.125,147.25 C277.958358,147.25 282.208315,148.374989 285.875,150.625 C289.541685,152.875011 292.177075,155.812482 293.78125,159.4375 C295.385425,163.062518 296.1875,168.958292 296.1875,177.125 L296.1875,217 L279,217 L279,182.5 C279,174.791628 278.041676,169.57293 276.125,166.84375 C274.208324,164.11457 271.333352,162.75 267.5,162.75 C264.583319,162.75 261.968762,163.583325 259.65625,165.25 C257.343738,166.916675 255.625006,169.218735 254.5,172.15625 C253.374994,175.093765 252.8125,179.812467 252.8125,186.3125 L252.8125,217 L235.625,217 L235.625,184.0625 C235.625,177.979136 235.177088,173.57293 234.28125,170.84375 C233.385412,168.11457 232.041676,166.08334 230.25,164.75 C228.458324,163.41666 226.291679,162.75 223.75,162.75 C220.916652,162.75 218.343762,163.593742 216.03125,165.28125 C213.718738,166.968758 211.989589,169.333318 210.84375,172.375 C209.697911,175.416682 209.125,180.208301 209.125,186.75 L209.125,217 L192,217 L192,149 Z M379.5625,187.9375 L324.75,187.9375 C325.541671,192.770858 327.656233,196.614569 331.09375,199.46875 C334.531267,202.322931 338.91664,203.75 344.25,203.75 C350.625032,203.75 356.104144,201.520856 360.6875,197.0625 L375.0625,203.8125 C371.479149,208.895859 367.187525,212.656238 362.1875,215.09375 C357.187475,217.531262 351.250034,218.75 344.375,218.75 C333.70828,218.75 325.020867,215.38545 318.3125,208.65625 C311.604133,201.92705 308.25,193.500051 308.25,183.375 C308.25,172.999948 311.593717,164.385451 318.28125,157.53125 C324.968783,150.677049 333.354116,147.25 343.4375,147.25 C354.145887,147.25 362.854133,150.677049 369.5625,157.53125 C376.270867,164.385451 379.625,173.437444 379.625,184.6875 L379.5625,187.9375 Z M362.4375,174.5 C361.312494,170.708314 359.093767,167.625012 355.78125,165.25 C352.468733,162.874988 348.625022,161.6875 344.25,161.6875 C339.499976,161.6875 335.333351,163.02082 331.75,165.6875 C329.499989,167.354175 327.416676,170.291646 325.5,174.5 L362.4375,174.5 Z M411.3125,122.75 L411.3125,156.5 C414.395849,153.416651 417.729149,151.104174 421.3125,149.5625 C424.895851,148.020826 428.729146,147.25 432.8125,147.25 C441.687544,147.25 449.229136,150.604133 455.4375,157.3125 C461.645864,164.020867 464.75,172.624947 464.75,183.125 C464.75,193.250051 461.541699,201.718716 455.125,208.53125 C448.708301,215.343784 441.104211,218.75 432.3125,218.75 C428.395814,218.75 424.750017,218.05209 421.375,216.65625 C417.999983,215.26041 414.64585,212.979183 411.3125,209.8125 L411.3125,217 L394.375,217 L394.375,122.75 L411.3125,122.75 Z M429.25,163 C423.874973,163 419.416684,164.833315 415.875,168.5 C412.333316,172.166685 410.5625,176.958304 410.5625,182.875 C410.5625,188.916697 412.333316,193.802065 415.875,197.53125 C419.416684,201.260435 423.874973,203.125 429.25,203.125 C434.458359,203.125 438.843732,201.229186 442.40625,197.4375 C445.968768,193.645814 447.75,188.812529 447.75,182.9375 C447.75,177.104138 446.000018,172.322935 442.5,168.59375 C438.999982,164.864565 434.58336,163 429.25,163 Z M470.3125,149 L487.75,149 L505.4375,191.6875 L524.9375,149 L542.4375,149 L499.8125,241.875 L482.1875,241.875 L496.1875,211.9375 L470.3125,149 Z M561.1875,123.9375 L578.1875,123.9375 L578.1875,149 L588.3125,149 L588.3125,163.6875 L578.1875,163.6875 L578.1875,217 L561.1875,217 L561.1875,163.6875 L552.4375,163.6875 L552.4375,149 L561.1875,149 L561.1875,123.9375 Z M669.625,187.9375 L614.8125,187.9375 C615.604171,192.770858 617.718733,196.614569 621.15625,199.46875 C624.593767,202.322931 628.97914,203.75 634.3125,203.75 C640.687532,203.75 646.166644,201.520856 650.75,197.0625 L665.125,203.8125 C661.541649,208.895859 657.250025,212.656238 652.25,215.09375 C647.249975,217.531262 641.312534,218.75 634.4375,218.75 C623.77078,218.75 615.083367,215.38545 608.375,208.65625 C601.666633,201.92705 598.3125,193.500051 598.3125,183.375 C598.3125,172.999948 601.656217,164.385451 608.34375,157.53125 C615.031283,150.677049 623.416616,147.25 633.5,147.25 C644.208387,147.25 652.916633,150.677049 659.625,157.53125 C666.333367,164.385451 669.6875,173.437444 669.6875,184.6875 L669.625,187.9375 Z M652.5,174.5 C651.374994,170.708314 649.156267,167.625012 645.84375,165.25 C642.531233,162.874988 638.687522,161.6875 634.3125,161.6875 C629.562476,161.6875 625.395851,163.02082 621.8125,165.6875 C619.562489,167.354175 617.479176,170.291646 615.5625,174.5 L652.5,174.5 Z M726.0625,158.5 L715.5,169.0625 C711.208312,164.812479 707.312518,162.6875 703.8125,162.6875 C701.895824,162.6875 700.395839,163.093746 699.3125,163.90625 C698.229161,164.718754 697.6875,165.729161 697.6875,166.9375 C697.6875,167.854171 698.031247,168.697913 698.71875,169.46875 C699.406253,170.239587 701.104153,171.29166 703.8125,172.625 L710.0625,175.75 C716.645866,179.000016 721.166654,182.312483 723.625,185.6875 C726.083346,189.062517 727.3125,193.020811 727.3125,197.5625 C727.3125,203.604197 725.093772,208.645813 720.65625,212.6875 C716.218728,216.729187 710.270871,218.75 702.8125,218.75 C692.895784,218.75 684.979196,214.875039 679.0625,207.125 L689.5625,195.6875 C691.56251,198.020845 693.906237,199.906243 696.59375,201.34375 C699.281263,202.781257 701.666656,203.5 703.75,203.5 C706.000011,203.5 707.812493,202.958339 709.1875,201.875 C710.562507,200.791661 711.25,199.541674 711.25,198.125 C711.25,195.499987 708.770858,192.937512 703.8125,190.4375 L698.0625,187.5625 C687.062445,182.020806 681.5625,175.083375 681.5625,166.75 C681.5625,161.374973 683.635396,156.781269 687.78125,152.96875 C691.927104,149.156231 697.229134,147.25 703.6875,147.25 C708.104189,147.25 712.260397,148.21874 716.15625,150.15625 C720.052103,152.09376 723.354153,154.874982 726.0625,158.5 Z" id="bottom" fill="#CCCCCC"></path>
        <path d="M53.375,28 L70.375,28 L70.375,96 L53.375,96 L53.375,88.8125 C50.04165,91.9791825 46.6979334,94.2604097 43.34375,95.65625 C39.9895666,97.0520903 36.3541862,97.75 32.4375,97.75 C23.6457894,97.75 16.0416988,94.3437841 9.625,87.53125 C3.20830125,80.7187159 0,72.2500506 0,62.125 C0,51.6249475 3.10413562,43.0208669 9.3125,36.3125 C15.5208644,29.6041331 23.0624556,26.25 31.9375,26.25 C36.0208538,26.25 39.8541488,27.0208256 43.4375,28.5625 C47.0208512,30.1041744 50.3333181,32.4166513 53.375,35.5 L53.375,28 Z M35.4375,42 C30.1458069,42 25.7500175,43.8645647 22.25,47.59375 C18.7499825,51.3229353 17,56.1041375 17,61.9375 C17,67.8125294 18.7812322,72.6458144 22.34375,76.4375 C25.9062678,80.2291856 30.2916406,82.125 35.5,82.125 C40.8750269,82.125 45.3333156,80.2604353 48.875,76.53125 C52.4166844,72.8020647 54.1875,67.9166969 54.1875,61.875 C54.1875,55.9583037 52.4166844,51.166685 48.875,47.5 C45.3333156,43.833315 40.8541938,42 35.4375,42 Z M84.625,28 L101.625,28 L101.625,34.9375 C105.500019,31.6874837 109.010401,29.4270897 112.15625,28.15625 C115.302099,26.8854103 118.520817,26.25 121.8125,26.25 C128.562534,26.25 134.291643,28.6041431 139,33.3125 C142.958353,37.31252 144.9375,43.2291275 144.9375,51.0625 L144.9375,96 L128.0625,96 L128.0625,66.1875 C128.0625,58.0624594 127.69792,52.66668 126.96875,50 C126.23958,47.33332 124.968759,45.3020903 123.15625,43.90625 C121.343741,42.5104097 119.10418,41.8125 116.4375,41.8125 C112.979149,41.8125 110.010429,42.9687384 107.53125,45.28125 C105.052071,47.5937616 103.333338,50.7916462 102.375,54.875 C101.874998,57.0000106 101.625,61.6041312 101.625,68.6875 L101.625,96 L84.625,96 L84.625,28 Z M168.125,0 C171.125015,0 173.697906,1.0833225 175.84375,3.25 C177.989594,5.4166775 179.0625,8.04165125 179.0625,11.125 C179.0625,14.1666819 178.000011,16.7604059 175.875,18.90625 C173.749989,21.0520941 171.208348,22.125 168.25,22.125 C165.208318,22.125 162.614594,21.0312609 160.46875,18.84375 C158.322906,16.6562391 157.25,14.0000156 157.25,10.875 C157.25,7.874985 158.312489,5.31251063 160.4375,3.1875 C162.562511,1.06248937 165.124985,0 168.125,0 Z M159.5625,28 L176.6875,28 L176.6875,96 L159.5625,96 L159.5625,28 Z M192,28 L209.125,28 L209.125,35.8125 C212.041681,32.6041506 215.281232,30.2083413 218.84375,28.625 C222.406268,27.0416588 226.291646,26.25 230.5,26.25 C234.750021,26.25 238.583316,27.2916563 242,29.375 C245.416684,31.4583437 248.166656,34.49998 250.25,38.5 C252.958347,34.49998 256.28123,31.4583437 260.21875,29.375 C264.15627,27.2916563 268.45831,26.25 273.125,26.25 C277.958358,26.25 282.208315,27.3749887 285.875,29.625 C289.541685,31.8750113 292.177075,34.8124819 293.78125,38.4375 C295.385425,42.0625181 296.1875,47.9582925 296.1875,56.125 L296.1875,96 L279,96 L279,61.5 C279,53.7916281 278.041676,48.5729303 276.125,45.84375 C274.208324,43.1145697 271.333352,41.75 267.5,41.75 C264.583319,41.75 261.968762,42.583325 259.65625,44.25 C257.343738,45.916675 255.625006,48.2187353 254.5,51.15625 C253.374994,54.0937647 252.8125,58.8124675 252.8125,65.3125 L252.8125,96 L235.625,96 L235.625,63.0625 C235.625,56.9791363 235.177088,52.5729303 234.28125,49.84375 C233.385412,47.1145697 232.041676,45.08334 230.25,43.75 C228.458324,42.41666 226.291679,41.75 223.75,41.75 C220.916652,41.75 218.343762,42.5937416 216.03125,44.28125 C213.718738,45.9687584 211.989589,48.3333181 210.84375,51.375 C209.697911,54.4166819 209.125,59.2083006 209.125,65.75 L209.125,96 L192,96 L192,28 Z M379.5625,66.9375 L324.75,66.9375 C325.541671,71.7708575 327.656233,75.6145691 331.09375,78.46875 C334.531267,81.3229309 338.91664,82.75 344.25,82.75 C350.625032,82.75 356.104144,80.5208556 360.6875,76.0625 L375.0625,82.8125 C371.479149,87.8958588 367.187525,91.6562378 362.1875,94.09375 C357.187475,96.5312622 351.250034,97.75 344.375,97.75 C333.70828,97.75 325.020867,94.3854503 318.3125,87.65625 C311.604133,80.9270497 308.25,72.5000506 308.25,62.375 C308.25,51.9999481 311.593717,43.3854509 318.28125,36.53125 C324.968783,29.6770491 333.354116,26.25 343.4375,26.25 C354.145887,26.25 362.854133,29.6770491 369.5625,36.53125 C376.270867,43.3854509 379.625,52.4374437 379.625,63.6875 L379.5625,66.9375 Z M362.4375,53.5 C361.312494,49.7083144 359.093767,46.6250119 355.78125,44.25 C352.468733,41.8749881 348.625022,40.6875 344.25,40.6875 C339.499976,40.6875 335.333351,42.02082 331.75,44.6875 C329.499989,46.354175 327.416676,49.2916456 325.5,53.5 L362.4375,53.5 Z M411.3125,1.75 L411.3125,35.5 C414.395849,32.4166513 417.729149,30.1041744 421.3125,28.5625 C424.895851,27.0208256 428.729146,26.25 432.8125,26.25 C441.687544,26.25 449.229136,29.6041331 455.4375,36.3125 C461.645864,43.0208669 464.75,51.6249475 464.75,62.125 C464.75,72.2500506 461.541699,80.7187159 455.125,87.53125 C448.708301,94.3437841 441.104211,97.75 432.3125,97.75 C428.395814,97.75 424.750017,97.0520903 421.375,95.65625 C417.999983,94.2604097 414.64585,91.9791825 411.3125,88.8125 L411.3125,96 L394.375,96 L394.375,1.75 L411.3125,1.75 Z M429.25,42 C423.874973,42 419.416684,43.833315 415.875,47.5 C412.333316,51.166685 410.5625,55.9583037 410.5625,61.875 C410.5625,67.9166969 412.333316,72.8020647 415.875,76.53125 C419.416684,80.2604353 423.874973,82.125 429.25,82.125 C434.458359,82.125 438.843732,80.2291856 442.40625,76.4375 C445.968768,72.6458144 447.75,67.8125294 447.75,61.9375 C447.75,56.1041375 446.000018,51.3229353 442.5,47.59375 C438.999982,43.8645647 434.58336,42 429.25,42 Z M470.3125,28 L487.75,28 L505.4375,70.6875 L524.9375,28 L542.4375,28 L499.8125,120.875 L482.1875,120.875 L496.1875,90.9375 L470.3125,28 Z M561.1875,2.9375 L578.1875,2.9375 L578.1875,28 L588.3125,28 L588.3125,42.6875 L578.1875,42.6875 L578.1875,96 L561.1875,96 L561.1875,42.6875 L552.4375,42.6875 L552.4375,28 L561.1875,28 L561.1875,2.9375 Z M669.625,66.9375 L614.8125,66.9375 C615.604171,71.7708575 617.718733,75.6145691 621.15625,78.46875 C624.593767,81.3229309 628.97914,82.75 634.3125,82.75 C640.687532,82.75 646.166644,80.5208556 650.75,76.0625 L665.125,82.8125 C661.541649,87.8958588 657.250025,91.6562378 652.25,94.09375 C647.249975,96.5312622 641.312534,97.75 634.4375,97.75 C623.77078,97.75 615.083367,94.3854503 608.375,87.65625 C601.666633,80.9270497 598.3125,72.5000506 598.3125,62.375 C598.3125,51.9999481 601.656217,43.3854509 608.34375,36.53125 C615.031283,29.6770491 623.416616,26.25 633.5,26.25 C644.208387,26.25 652.916633,29.6770491 659.625,36.53125 C666.333367,43.3854509 669.6875,52.4374437 669.6875,63.6875 L669.625,66.9375 Z M652.5,53.5 C651.374994,49.7083144 649.156267,46.6250119 645.84375,44.25 C642.531233,41.8749881 638.687522,40.6875 634.3125,40.6875 C629.562476,40.6875 625.395851,42.02082 621.8125,44.6875 C619.562489,46.354175 617.479176,49.2916456 615.5625,53.5 L652.5,53.5 Z M726.0625,37.5 L715.5,48.0625 C711.208312,43.8124787 707.312518,41.6875 703.8125,41.6875 C701.895824,41.6875 700.395839,42.0937459 699.3125,42.90625 C698.229161,43.7187541 697.6875,44.7291606 697.6875,45.9375 C697.6875,46.8541712 698.031247,47.6979128 698.71875,48.46875 C699.406253,49.2395872 701.104153,50.29166 703.8125,51.625 L710.0625,54.75 C716.645866,58.0000162 721.166654,61.3124831 723.625,64.6875 C726.083346,68.0625169 727.3125,72.0208106 727.3125,76.5625 C727.3125,82.6041969 725.093772,87.6458131 720.65625,91.6875 C716.218728,95.7291869 710.270871,97.75 702.8125,97.75 C692.895784,97.75 684.979196,93.8750387 679.0625,86.125 L689.5625,74.6875 C691.56251,77.020845 693.906237,78.9062428 696.59375,80.34375 C699.281263,81.7812572 701.666656,82.5 703.75,82.5 C706.000011,82.5 707.812493,81.9583387 709.1875,80.875 C710.562507,79.7916613 711.25,78.5416738 711.25,77.125 C711.25,74.4999869 708.770858,71.9375125 703.8125,69.4375 L698.0625,66.5625 C687.062445,61.0208056 681.5625,54.083375 681.5625,45.75 C681.5625,40.3749731 683.635396,35.7812691 687.78125,31.96875 C691.927104,28.1562309 697.229134,26.25 703.6875,26.25 C708.104189,26.25 712.260397,27.2187403 716.15625,29.15625 C720.052103,31.0937597 723.354153,33.8749819 726.0625,37.5 Z" id="top" fill="#FFFFFF"></path>
    </g>
</svg>