<?xml version="1.0" encoding="UTF-8" standalone="no"?>
<svg width="16" height="330" viewBox="0 0 16 330" version="1.1" xmlns="http://www.w3.org/2000/svg" xmlns:xlink="http://www.w3.org/1999/xlink" xml:space="preserve" style="fill-rule:evenodd;clip-rule:evenodd;stroke-linecap:square;stroke-miterlimit:1.5;">
    <path d="M13.167,1.398l-10.879,10.895l-0.859,2.324l2.285,-0.9l10.879,-10.895c-0.288,-0.603 -0.73,-1.101 -1.426,-1.424Z"/>
    <path d="M3.193,11.383l-0.91,0.911c0,0 0.255,0.557 0.491,0.793c0.238,0.238 0.936,0.633 0.936,0.633l0.911,-0.912c0,0 -0.665,-0.361 -0.903,-0.599c-0.238,-0.238 -0.525,-0.826 -0.525,-0.826Z" style="fill:#a0a0a0;"/>
    <path d="M11.91,2.656l-0.911,0.912c0,0 0.255,0.557 0.492,0.793c0.238,0.238 0.936,0.632 0.936,0.632l0.91,-0.911c0,0 -0.665,-0.362 -0.903,-0.599c-0.237,-0.238 -0.524,-0.827 -0.524,-0.827Z" style="fill:#eee;"/>
    <path d="M7.96,23.293c3.708,0 6.719,2.253 6.719,5.027c0,2.775 -3.011,5.028 -6.719,5.028c-0.948,0 -3.404,-0.222 -3.404,-0.222l-1.872,1.683l-0.026,-3.398c0,0 -1.417,-1.855 -1.417,-3.091c0,-2.774 3.01,-5.027 6.719,-5.027Z" style="fill:#282933;"/>
    <path d="M4.81,28.583l0,-2.548l2.896,0l0,2.012c0,1.089 -0.155,1.873 -0.465,2.353c-0.43,0.658 -1.1,1.154 -2.011,1.487l-0.66,-0.866c0.54,-0.179 0.943,-0.461 1.208,-0.847c0.265,-0.386 0.413,-0.916 0.443,-1.591l-1.411,0Z" style="fill:#dbdbdc;fill-rule:nonzero;"/>
    <path d="M8.857,28.568l0,-2.548l2.896,0l0,2.012c0,1.089 -0.155,1.873 -0.465,2.352c-0.43,0.659 -1.1,1.154 -2.01,1.488l-0.661,-0.866c0.541,-0.179 0.943,-0.461 1.208,-0.847c0.265,-0.386 0.413,-0.916 0.443,-1.591l-1.411,0Z" style="fill:#dbdbdc;fill-rule:nonzero;"/>
    <path d="M1.507,46.776l6.516,5.556l6.656,-5.766l0,7.86l-13.172,0.017l0,-7.667Z" style="fill:#282933;"/>
    <path d="M2.465,45.682l11.076,0l-5.541,4.9l-5.535,-4.9Z" style="fill:#282933;"/>
    <path d="M14.679,45.682l0,0.923l-6.679,5.939l-6.493,-5.688l0,-1.174l0.973,0l5.526,4.814l5.499,-4.814l1.174,0Z" style="fill:#dbdbdc;fill-rule:nonzero;"/>
    <path d="M10.839,77.648l-9.598,0c0,-0.299 0,-0.61 0,-0.927c0,-3.567 5.26,-4.557 5.26,-4.557l0.002,-1.186c0,0 -1.212,-1.491 -1.212,-2.588c0,-2.253 1.196,-4.082 2.669,-4.082c1.473,0 2.669,1.829 2.669,4.082c0,1.02 -1.112,2.588 -1.112,2.588l0.012,1.186c0,0 3.394,0.638 4.672,2.798l-3.362,0l0,2.686Z" style="fill:#282933;"/>
    <path d="M12.998,74.004c0,0 0.482,0 0.972,0c0.272,0 0.532,0.108 0.724,0.3c0.192,0.192 0.3,0.452 0.3,0.724c0,0.307 0,0.645 0,0.953c0,0.271 -0.108,0.531 -0.3,0.723c-0.192,0.192 -0.452,0.3 -0.724,0.3c-0.49,0 -0.972,0 -0.972,0c0,0 0,0.49 0,0.985c0,0.566 -0.458,1.024 -1.023,1.024c-0.308,0 -0.645,0 -0.953,0c-0.565,0 -1.024,-0.458 -1.024,-1.024c0,-0.495 0,-0.985 0,-0.985l-2.002,0l0,-3l2.002,0c0,0 0,-0.483 0,-0.974c0,-0.565 0.459,-1.024 1.024,-1.024c0.308,0 0.645,0 0.953,0c0.565,0 1.023,0.459 1.023,1.024c0,0.491 0,0.974 0,0.974Z" style="fill:#66d06b;fill-rule:nonzero;"/>
    <path d="M11.975,72.006l0.053,0.002l0.051,0.004l0.052,0.006l0.05,0.009l0.05,0.012l0.048,0.013l0.048,0.016l0.046,0.019l0.046,0.02l0.044,0.023l0.043,0.025l0.041,0.026l0.04,0.029l0.039,0.03l0.037,0.032l0.036,0.034l0.034,0.036l0.032,0.037l0.03,0.039l0.029,0.04l0.026,0.041l0.025,0.043l0.023,0.044l0.02,0.046l0.018,0.046l0.016,0.048l0.014,0.048l0.012,0.05l0.009,0.05l0.006,0.051l0.004,0.052l0.001,0.053l0,0.974l0.972,0l0.051,0.001l0.05,0.004l0.05,0.006l0.05,0.009l0.049,0.011l0.048,0.013l0.047,0.016l0.047,0.018l0.046,0.02l0.044,0.023l0.044,0.024l0.042,0.027l0.041,0.029l0.04,0.031l0.038,0.033l0.037,0.035l0.035,0.037l0.033,0.038l0.031,0.04l0.029,0.041l0.027,0.042l0.024,0.044l0.023,0.044l0.02,0.046l0.018,0.047l0.016,0.047l0.013,0.048l0.011,0.049l0.009,0.05l0.006,0.05l0.003,0.05l0.002,0.051l0,0.953l-0.002,0.05l-0.003,0.051l-0.006,0.05l-0.009,0.049l-0.011,0.049l-0.013,0.048l-0.016,0.048l-0.018,0.046l-0.02,0.046l-0.023,0.045l-0.024,0.043l-0.027,0.043l-0.029,0.041l-0.031,0.039l-0.033,0.039l-0.035,0.036l-0.037,0.035l-0.038,0.033l-0.04,0.031l-0.041,0.029l-0.042,0.027l-0.044,0.025l-0.044,0.022l-0.046,0.02l-0.047,0.018l-0.047,0.016l-0.048,0.013l-0.049,0.011l-0.05,0.009l-0.05,0.006l-0.05,0.004l-0.051,0.001l-0.972,0l0,0.985l-0.001,0.053l-0.004,0.052l-0.006,0.051l-0.009,0.051l-0.012,0.049l-0.014,0.049l-0.016,0.047l-0.018,0.047l-0.02,0.045l-0.023,0.044l-0.025,0.043l-0.026,0.042l-0.029,0.04l-0.03,0.039l-0.032,0.037l-0.034,0.035l-0.036,0.034l-0.037,0.032l-0.039,0.031l-0.04,0.028l-0.041,0.027l-0.043,0.024l-0.044,0.023l-0.046,0.021l-0.046,0.018l-0.048,0.016l-0.048,0.014l-0.05,0.011l-0.05,0.009l-0.052,0.007l-0.051,0.004l-0.053,0.001l-0.953,0l-0.053,-0.001l-0.052,-0.004l-0.051,-0.007l-0.05,-0.009l-0.05,-0.011l-0.048,-0.014l-0.048,-0.016l-0.046,-0.018l-0.046,-0.021l-0.044,-0.023l-0.043,-0.024l-0.041,-0.027l-0.04,-0.028l-0.039,-0.031l-0.037,-0.032l-0.036,-0.034l-0.034,-0.035l-0.032,-0.037l-0.03,-0.039l-0.029,-0.04l-0.026,-0.042l-0.025,-0.043l-0.023,-0.044l-0.02,-0.045l-0.018,-0.047l-0.017,-0.047l-0.013,-0.049l-0.012,-0.049l-0.009,-0.051l-0.006,-0.051l-0.004,-0.052l-0.002,-0.053l0,-0.985l-2.002,0l0,-3l2.002,0l0,-0.974l0.002,-0.053l0.004,-0.052l0.006,-0.051l0.009,-0.05l0.012,-0.05l0.013,-0.048l0.017,-0.048l0.018,-0.046l0.02,-0.046l0.023,-0.044l0.025,-0.043l0.026,-0.041l0.029,-0.04l0.03,-0.039l0.032,-0.037l0.034,-0.036l0.036,-0.034l0.037,-0.032l0.039,-0.03l0.04,-0.029l0.041,-0.026l0.043,-0.025l0.044,-0.023l0.046,-0.02l0.046,-0.019l0.048,-0.016l0.048,-0.013l0.05,-0.012l0.05,-0.009l0.051,-0.006l0.052,-0.004l0.053,-0.002l0.953,0Zm-0.94,1.008l-0.015,0.001l-0.001,0l-0.001,0l0,0l-0.001,0l0,0l0,0l-0.001,0l0,0.001l-0.001,0l0,0l-0.001,0.001l-0.001,0l0,0.001l-0.001,0l-0.001,0.001l0,0.001l-0.001,0.001l-0.001,0l0,0.001l-0.001,0.001l0,0l0,0.001l0,0l-0.001,0.001l0,0l0,0l0,0.001l0,0l0,0.001l0,0.001l-0.001,0.015l0,1.969l-2.002,0l0,0.984l2.002,0l0,1.981l0.001,0.018l0.006,0.007l0.006,0.003l0.016,0l0.927,0l0.014,0l0.002,0l0.001,-0.001l0,0l0,0l0.001,0l0,0l0.001,0l0,0l0.001,-0.001l0,0l0.001,0l0,-0.001l0.001,0l0.001,-0.001l0.001,-0.001l0,0l0.001,-0.001l0.001,-0.001l0,-0.001l0.001,0l0,-0.001l0,0l0,-0.001l0,0l0.001,-0.001l0,0l0,0l0,-0.001l0,-0.001l0,-0.001l0,-0.014l0,-1.981l1.968,0l0.013,0l0.001,0l0,0l0.001,0l0.001,-0.001l0.001,0l0,0l0.001,0l0.001,-0.001l0,0l0.001,0l0.001,-0.001l0,0l0.001,0l0,-0.001l0.001,-0.001l0.001,0l0,-0.001l0,0l0.001,-0.001l0,-0.001l0.001,0l0,-0.001l0,-0.001l0.001,0l0,-0.001l0,-0.001l0,0l0,-0.001l0,-0.001l0,-0.001l0.001,-0.013l0,-0.928l-0.001,-0.013l0,-0.001l0,0l0,-0.001l0,-0.001l0,-0.001l0,0l-0.001,-0.001l0,-0.001l0,0l-0.001,-0.001l0,-0.001l-0.001,0l0,-0.001l0,0l-0.001,-0.001l-0.001,-0.001l0,0l-0.001,0l0,-0.001l-0.001,0l-0.001,-0.001l0,0l-0.001,0l-0.001,-0.001l0,0l-0.001,0l-0.001,0l-0.001,0l0,0l-0.001,0l-0.013,-0.001l-1.968,0l0,-1.969l0,-0.015l0,-0.001l0,-0.001l0,0l0,-0.001l0,0l0,0l-0.001,-0.001l0,0l0,-0.001l0,0l-0.001,-0.001l0,-0.001l-0.001,0l-0.001,-0.001l0,-0.001l-0.001,-0.001l-0.001,0l-0.001,-0.001l0,0l-0.001,-0.001l0,0l-0.001,0l0,-0.001l-0.001,0l0,0l-0.001,0l0,0l0,0l-0.001,0l-0.001,0l-0.015,-0.001l-0.927,0Z" style="fill:#137318;"/>
    <path d="M1.685,97.574l12.703,0l-6.391,-11.073l-6.312,11.073Zm7.316,-2.63l-2.002,0l0,2.058l2.002,0l0,-2.058Zm0,-5.27l-2.002,0l0,4.659l2.002,0l0,-4.659Z" style="fill:#282933;"/>
    <path d="M11.29,107.761l-8.525,8.538l1.919,1.917l8.525,-8.539l-1.919,-1.916Z" style="fill:#a70f0f;"/>
    <path d="M4.684,107.761l8.525,8.538l-1.919,1.917l-8.525,-8.539l1.919,-1.916Z" style="fill:#a70f0f;"/>
    <circle cx="7.462" cy="134.389" r="5.075" style="fill:#3b489f;"/>
    <circle cx="7.462" cy="155.366" r="5.075" style="fill:#bababa;"/>
    <rect x="2.507" y="175.555" width="11.045" height="7.018" style="fill:#282933;"/>
    <path d="M4.011,172.994l0,-0.02c0,-2.187 1.79,-3.963 3.995,-3.963c2.204,0 3.994,1.776 3.994,3.963l0,0.017l0,0l0,3.288l-1.701,0l0,-3.285l0,0l0,-0.01c0,-1.249 -1.022,-2.263 -2.281,-2.263c-1.259,0 -2.281,1.014 -2.281,2.263l0,0.01c0,0 0,3.288 0,3.288l-1.726,0l0,-3.288l0,0Z" style="fill:#282933;"/>
    <path d="M8.109,169.012l0.102,0.004l0.102,0.006l0.101,0.009l0.1,0.012l0.1,0.013l0.098,0.017l0.098,0.018l0.097,0.021l0.096,0.024l0.096,0.025l0.094,0.028l0.093,0.03l0.092,0.032l0.092,0.035l0.09,0.036l0.089,0.039l0.088,0.041l0.086,0.043l0.086,0.044l0.084,0.047l0.083,0.049l0.082,0.051l0.08,0.052l0.079,0.054l0.078,0.057l0.076,0.058l0.075,0.059l0.073,0.062l0.072,0.063l0.07,0.065l0.068,0.066l0.067,0.068l0.066,0.07l0.063,0.071l0.062,0.073l0.06,0.074l0.059,0.076l0.057,0.077l0.054,0.078l0.053,0.08l0.051,0.081l0.049,0.082l0.047,0.084l0.046,0.085l0.043,0.086l0.041,0.087l0.039,0.088l0.037,0.09l0.034,0.09l0.033,0.092l0.03,0.092l0.028,0.094l0.026,0.094l0.023,0.096l0.022,0.096l0.018,0.097l0.017,0.098l0.014,0.099l0.011,0.099l0.009,0.101l0.007,0.101l0.004,0.101l0.001,0.102l0,0.017l0,0l0,3.288l-1.701,0l0,-3.285l0,0l0,-0.01l-0.001,-0.058l-0.002,-0.058l-0.004,-0.058l-0.005,-0.057l-0.006,-0.057l-0.008,-0.056l-0.01,-0.056l-0.01,-0.056l-0.012,-0.055l-0.014,-0.054l-0.015,-0.054l-0.016,-0.054l-0.017,-0.052l-0.018,-0.053l-0.02,-0.051l-0.021,-0.052l-0.023,-0.05l-0.023,-0.05l-0.025,-0.049l-0.025,-0.048l-0.027,-0.048l-0.028,-0.047l-0.029,-0.046l-0.031,-0.046l-0.031,-0.045l-0.032,-0.044l-0.034,-0.043l-0.034,-0.042l-0.035,-0.042l-0.037,-0.04l-0.037,-0.04l-0.038,-0.039l-0.039,-0.038l-0.041,-0.037l-0.04,-0.036l-0.042,-0.035l-0.043,-0.034l-0.043,-0.033l-0.045,-0.032l-0.045,-0.032l-0.046,-0.03l-0.046,-0.028l-0.048,-0.028l-0.048,-0.027l-0.049,-0.026l-0.049,-0.024l-0.05,-0.023l-0.051,-0.022l-0.052,-0.021l-0.052,-0.02l-0.053,-0.018l-0.053,-0.017l-0.054,-0.016l-0.054,-0.015l-0.055,-0.013l-0.055,-0.012l-0.056,-0.011l-0.057,-0.009l-0.056,-0.008l-0.058,-0.007l-0.057,-0.005l-0.058,-0.003l-0.059,-0.003l-0.059,0l-0.059,0l-0.058,0.003l-0.058,0.003l-0.058,0.005l-0.057,0.007l-0.057,0.008l-0.056,0.009l-0.056,0.011l-0.056,0.012l-0.054,0.013l-0.055,0.015l-0.054,0.016l-0.053,0.017l-0.053,0.018l-0.052,0.02l-0.051,0.021l-0.051,0.022l-0.05,0.023l-0.05,0.024l-0.049,0.026l-0.048,0.027l-0.047,0.028l-0.047,0.028l-0.046,0.03l-0.045,0.032l-0.044,0.032l-0.044,0.033l-0.042,0.034l-0.042,0.035l-0.041,0.036l-0.04,0.037l-0.039,0.038l-0.038,0.039l-0.038,0.04l-0.036,0.04l-0.035,0.042l-0.035,0.042l-0.033,0.043l-0.033,0.044l-0.031,0.045l-0.03,0.046l-0.029,0.046l-0.028,0.047l-0.027,0.048l-0.026,0.048l-0.025,0.049l-0.023,0.05l-0.022,0.05l-0.021,0.052l-0.02,0.051l-0.019,0.053l-0.017,0.052l-0.016,0.054l-0.015,0.054l-0.013,0.054l-0.012,0.055l-0.011,0.056l-0.009,0.056l-0.008,0.056l-0.007,0.057l-0.005,0.057l-0.004,0.058l-0.002,0.058l-0.001,0.058l0,0.01c0,0 0,3.288 0,3.288l-1.726,0l0,-3.288l0,0l0,-0.02l0.002,-0.102l0.004,-0.101l0.006,-0.101l0.009,-0.101l0.011,-0.099l0.014,-0.099l0.017,-0.098l0.019,-0.097l0.021,-0.096l0.023,-0.096l0.026,-0.094l0.028,-0.094l0.03,-0.092l0.033,-0.092l0.035,-0.09l0.036,-0.09l0.039,-0.088l0.041,-0.087l0.044,-0.086l0.045,-0.085l0.047,-0.084l0.049,-0.082l0.051,-0.081l0.053,-0.08l0.055,-0.078l0.056,-0.077l0.059,-0.076l0.06,-0.074l0.062,-0.073l0.063,-0.071l0.066,-0.07l0.067,-0.068l0.068,-0.066l0.071,-0.065l0.071,-0.063l0.073,-0.062l0.075,-0.059l0.076,-0.058l0.078,-0.057l0.079,-0.054l0.08,-0.052l0.082,-0.051l0.083,-0.049l0.084,-0.047l0.086,-0.044l0.087,-0.043l0.087,-0.041l0.089,-0.039l0.091,-0.036l0.091,-0.035l0.092,-0.032l0.093,-0.03l0.095,-0.028l0.095,-0.025l0.096,-0.024l0.097,-0.021l0.098,-0.018l0.099,-0.017l0.099,-0.013l0.1,-0.012l0.101,-0.009l0.102,-0.006l0.103,-0.004l0.103,-0.001l0.103,0.001Z" style="fill:#282933;"/>
    <g>
        <path d="M15.188,194.54l-4.833,-4.715l-0.383,2.736l2.416,2.357l2.8,-0.378Z" style="fill:#2a3328;"/>
        <path d="M12.582,194.723l-2.41,-2.351l-3.109,3.042l2.41,2.351l3.109,-3.042Z" style="fill:#2a3328;"/>
        <path d="M9.415,202.195l-6.886,-6.719l4.722,-0.231l2.395,2.336l-0.231,4.614Z" style="fill:#2a3328;"/>
    </g>
    <path d="M1.27,203.73l3.314,-4.669l1.357,1.358l-4.671,3.311Z" style="fill:#2a3328;"/>
    <path d="M14.45,218.036l-7.031,5.824l0,-11.649l7.031,5.825Z" style="fill:#a4a4a5;"/>
    <rect x="1.407" y="216.282" width="8.775" height="3.507" style="fill:#a4a4a5;"/>
    <g>
        <circle cx="8" cy="238.498" r="6.589" style="fill:none;stroke:#1e8ab2;stroke-width:2.3px;"/>
        <path d="M11.159,239.972c-0.001,1.805 -1.466,3.271 -3.272,3.271c-1.805,0 -3.271,-1.466 -3.271,-3.271l6.543,0Z" style="fill:#1e8ab2;"/>
        <path d="M4.683,237.96l0,-1.213c0.866,0 1.569,0.703 1.569,1.569l-1.228,0c-0.094,-0.136 -0.21,-0.256 -0.341,-0.356Z" style="fill:#1e8ab2;stroke:#1e8ab2;stroke-width:1.2px;"/>
        <path d="M11.315,237.96l0,-1.213c-0.866,0 -1.569,0.703 -1.569,1.569l1.228,0c0.094,-0.136 0.21,-0.256 0.341,-0.356Z" style="fill:#1e8ab2;stroke:#1e8ab2;stroke-width:1.2px;"/>
    </g>
    <g>
        <circle cx="8" cy="260.499" r="6.589" style="fill:none;stroke:#bababa;stroke-width:2.3px;"/>
        <path d="M11.159,261.972c-0.001,1.806 -1.466,3.272 -3.272,3.272c-1.805,0 -3.271,-1.466 -3.271,-3.272l6.543,0Z" style="fill:#bababa;"/>
        <path d="M4.683,259.961l0,-1.213c0.866,0 1.569,0.703 1.569,1.569l-1.228,0c-0.094,-0.136 -0.21,-0.256 -0.341,-0.356Z" style="fill:#bababa;stroke:#bababa;stroke-width:1.2px;"/>
        <path d="M11.315,259.961l0,-1.213c-0.866,0 -1.569,0.703 -1.569,1.569l1.228,0c0.094,-0.136 0.21,-0.256 0.341,-0.356Z" style="fill:#bababa;stroke:#bababa;stroke-width:1.2px;"/>
    </g>
    <rect x="6.397" y="274.427" width="3.205" height="10.2" style="fill:#282933;"/>
    <path d="M13.1,281.129l0,-3.204l-10.2,0l0,3.204l10.2,0Z" style="fill:#282933;"/>
    <circle cx="7.462" cy="300.137" r="5.075" style="fill:#3b489f;"/>
    <circle cx="7.462" cy="321.114" r="5.075" style="fill:#bababa;"/>
    <ellipse cx="11.478" cy="303.522" rx="2.84" ry="2.833" style="fill:none;stroke:#000;stroke-width:1.54px;"/>
    <ellipse cx="11.478" cy="303.522" rx="2.84" ry="2.833" style="fill:#92c6d9;"/>
    <ellipse cx="11.478" cy="324.493" rx="2.84" ry="2.833" style="fill:none;stroke:#616269;stroke-width:1.54px;"/>
    <ellipse cx="11.478" cy="324.493" rx="2.84" ry="2.833" style="fill:#92c6d9;"/>
</svg>