<?xml version="1.0" encoding="UTF-8" standalone="no"?>
<svg
   xmlns:dc="http://purl.org/dc/elements/1.1/"
   xmlns:cc="http://creativecommons.org/ns#"
   xmlns:rdf="http://www.w3.org/1999/02/22-rdf-syntax-ns#"
   xmlns:svg="http://www.w3.org/2000/svg"
   xmlns="http://www.w3.org/2000/svg"
   xmlns:sodipodi="http://sodipodi.sourceforge.net/DTD/sodipodi-0.dtd"
   xmlns:inkscape="http://www.inkscape.org/namespaces/inkscape"
   width="98.123047"
   height="16.307465"
   viewBox="0 0 98.123046 16.307464"
   version="1.1"
   id="svg3753"
   sodipodi:docname="logo.svg"
   inkscape:version="0.92.3 (2405546, 2018-03-11)">
  <metadata
     id="metadata3759">
    <rdf:RDF>
      <cc:Work
         rdf:about="">
        <dc:format>image/svg+xml</dc:format>
        <dc:type
           rdf:resource="http://purl.org/dc/dcmitype/StillImage" />
        <dc:title>animebytes</dc:title>
        <dc:title>animebytes</dc:title>
      </cc:Work>
    </rdf:RDF>
  </metadata>
  <defs
     id="defs3757" />
  <sodipodi:namedview
     pagecolor="#ffffff"
     bordercolor="#666666"
     borderopacity="1"
     objecttolerance="10"
     gridtolerance="10"
     guidetolerance="10"
     inkscape:pageopacity="0"
     inkscape:pageshadow="2"
     inkscape:window-width="1920"
     inkscape:window-height="1017"
     id="namedview3755"
     showgrid="false"
     inkscape:zoom="8.920424"
     inkscape:cx="44.972386"
     inkscape:cy="-23.750662"
     inkscape:window-x="-8"
     inkscape:window-y="-8"
     inkscape:window-maximized="1"
     inkscape:current-layer="animebytes" />
  <title
     id="title3746">animebytes</title>
  <g
     id="animebytes"
     transform="matrix(0.12236899,0,0,0.12236899,4.5612756,13.856241)"
     style="fill:none;fill-rule:evenodd;stroke:none;stroke-width:1">
    <path
       d="m 21.57117,-82.363268 h 18.7425 v 74.9700105 h -18.7425 v -7.9242405 c -3.675017,3.49126 -7.361466,6.0063205 -11.059452,7.5452305 -3.697987,1.53892 -7.705995,2.30837 -12.024142,2.30837 -9.69286,0 -18.076369,-3.75537 -25.150781,-11.2661805 -7.074409,-7.51081 -10.611562,-16.84752 -10.611562,-28.01038 0,-11.57631 3.42231,-21.0623 10.267031,-28.45828 6.844721,-7.39598 15.159326,-11.0939 24.944062,-11.0939 4.501898,0 8.728106,0.84983 12.67875,2.54952 3.950646,1.69969 7.60264,4.24921 10.956094,7.6486 z m -19.776094,15.435 c -5.834091,0 -10.680449,2.05567 -14.539218,6.1671 -3.858768,4.11142 -5.788125,9.38271 -5.788125,15.81399 0,6.47721 1.963809,11.80591 5.891485,15.98624 3.927675,4.18034 8.76255,6.27047 14.504764,6.27047 5.925968,0 10.841232,-2.05568 14.745938,-6.16711 3.904708,-4.11142 5.857032,-9.49754 5.857032,-16.1585 0,-6.52317 -1.952324,-11.80593 -5.857032,-15.84844 -3.904706,-4.04253 -8.842939,-6.06375 -14.814844,-6.06375 z m 54.229219,-15.435 H 74.7668 v 7.64859 c 4.27221,-3.58315 8.1424,-6.07523 11.6107,-7.47633 3.4683,-1.40109 7.01694,-2.10163 10.64601,-2.10163 7.44191,0 13.75826,2.59543 18.94923,7.7864 4.36407,4.41002 6.54609,10.93308 6.54609,19.56937 V -7.3932575 H 103.91414 V -40.261558 c 0,-8.95785 -0.40198,-14.9067 -1.20585,-17.84671 -0.80391,-2.94002 -2.20499,-5.17945 -4.20329,-6.71836 -1.9983,-1.53891 -4.46741,-2.30836 -7.40742,-2.30836 -3.81282,0 -7.08584,1.27475 -9.81914,3.8243 -2.7333,2.54953 -4.6282,6.07521 -5.68477,10.57711 -0.55128,2.34282 -0.82687,7.41886 -0.82687,15.22826 V -7.3932575 H 56.024295 Z m 92.058755,-30.870002 c 3.30751,0 6.14413,1.19436 8.50991,3.58313 2.3658,2.38876 3.54868,5.28279 3.54868,8.68218 0,3.353452 -1.17139,6.213042 -3.51422,8.578832 -2.34282,2.36579 -5.14498,3.54867 -8.40656,3.54867 -3.35346,0 -6.21304,-1.20585 -8.57883,-3.61758 -2.36579,-2.41173 -3.54867,-5.34021 -3.54867,-8.785542 0,-3.30753 1.17139,-6.13265 3.51422,-8.47548 2.34282,-2.34282 5.16795,-3.51421 8.47547,-3.51421 z m -9.44016,30.870002 h 18.88031 v 74.9700105 h -18.88031 z m 35.76235,0 h 18.88031 v 8.61328 c 3.21564,-3.53721 6.78724,-6.17859 10.71491,-7.92422 3.92769,-1.74563 8.21132,-2.61843 12.85103,-2.61843 4.68564,0 8.91185,1.14842 12.67875,3.44531 3.76688,2.29687 6.79874,5.65028 9.09562,10.06031 2.98595,-4.41003 6.64943,-7.76344 10.99054,-10.06031 4.34112,-2.29689 9.08412,-3.44531 14.22915,-3.44531 5.32878,0 10.01435,1.2403 14.05687,3.72093 4.04252,2.48064 6.94803,5.7192 8.71664,9.71578 1.7686,3.99658 2.65289,10.49667 2.65289,19.50047 V -7.3932575 H 270.32274 V -45.429518 c 0,-8.49848 -1.05655,-14.2521 -3.16969,-17.26102 -2.11315,-3.00892 -5.2828,-4.51335 -9.50906,-4.51335 -3.21565,0 -6.09819,0.91873 -8.64774,2.75625 -2.54955,1.8375 -4.44444,4.37551 -5.68476,7.61413 -1.24033,3.2386 -1.86048,8.44099 -1.86048,15.60727 V -7.3932575 H 222.5018 V -43.706868 c 0,-6.7069 -0.49383,-11.56475 -1.48149,-14.57367 -0.98766,-3.00892 -2.46912,-5.24835 -4.44445,-6.71835 -1.97533,-1.47001 -4.36405,-2.205 -7.16625,-2.205 -3.12377,0 -5.96038,0.93021 -8.50992,2.7907 -2.54955,1.86047 -4.45593,4.4674 -5.71923,7.82086 -1.26328,3.35345 -1.89491,8.63621 -1.89491,15.84844 v 33.3506205 h -18.88031 z m 206.78765,42.92859 h -60.43078 c 0.87281,5.32877 3.20412,9.56646 6.99398,12.71319 3.78987,3.14674 8.62474,4.72009 14.50477,4.72009 7.02847,0 13.06918,-2.45763 18.12234,-7.37297 l 15.84844,7.44187 c -3.95065,5.6044 -8.68217,9.75023 -14.19469,12.4375705 -5.51253,2.68737 -12.05856,4.03103 -19.63828,4.03103 -11.76006,0 -21.33793,-3.70942 -28.73391,-11.1283605 -7.39598,-7.41894 -11.0939,-16.70972 -11.0939,-27.87257 0,-11.4385 3.68645,-20.93598 11.05945,-28.49274 7.37301,-7.55675 16.61784,-11.33507 27.73477,-11.33507 11.806,0 21.40683,3.77832 28.80281,11.33507 7.39598,7.55676 11.09391,17.53658 11.09391,29.93976 z m -18.88031,-14.81484 c -1.24033,-4.18034 -3.68646,-7.57968 -7.33852,-10.19812 -3.65205,-2.61845 -7.88974,-3.92767 -12.7132,-3.92767 -5.23689,0 -9.8306,1.46999 -13.78125,4.41 -2.48063,1.8375 -4.77749,5.07608 -6.89062,9.71579 z m 53.88468,-57.054372 v 37.209372 c 3.3994,-3.39939 7.07436,-5.94891 11.025,-7.6486 3.95065,-1.69969 8.17686,-2.54952 12.67875,-2.54952 9.78473,0 18.09935,3.69792 24.94407,11.0939 6.84471,7.39598 10.26703,16.88197 10.26703,28.45828 0,11.16286 -3.53715,20.49957 -10.61156,28.01038 -7.07442,7.5108105 -15.45792,11.2661805 -25.15079,11.2661805 -4.31814,0 -8.33763,-0.76947 -12.05859,-2.30837 -3.72095,-1.53891 -7.41889,-4.0539705 -11.09391,-7.5452305 v 7.9242405 H 397.52367 V -111.30389 Z m 19.7761,44.375622 c -5.92597,0 -10.84124,2.02122 -14.74594,6.06375 -3.9047,4.04251 -5.85703,9.32527 -5.85703,15.84844 0,6.66096 1.95233,12.04707 5.85703,16.1585 3.9047,4.11143 8.81997,6.16711 14.74594,6.16711 5.74222,0 10.57708,-2.09013 14.50477,-6.27047 3.92768,-4.18033 5.89148,-9.50903 5.89148,-15.98624 0,-6.43128 -1.92935,-11.70257 -5.78812,-15.81399 -3.85877,-4.11143 -8.7281,-6.1671 -14.60813,-6.1671 z m 45.2714,-15.435 h 19.22485 l 19.50047,47.06295 21.49875,-47.06295 h 19.29375 l -46.99407,102.39468 h -19.43156 l 15.435,-33.0061 z m 100.18969,-27.631412 h 18.7425 v 27.631412 h 11.16281 v 16.19296 h -11.16281 v 58.7770505 h -18.7425 V -66.170308 h -9.64687 v -16.19296 h 9.64687 z m 119.55235,70.560002 h -60.43079 c 0.87283,5.32877 3.20412,9.56646 6.99399,12.71319 3.78987,3.14674 8.62473,4.72009 14.50476,4.72009 7.02847,0 13.0692,-2.45763 18.12235,-7.37297 l 15.84844,7.44187 c -3.95065,5.6044 -8.68216,9.75023 -14.19469,12.4375705 -5.51253,2.68737 -12.05857,4.03103 -19.63828,4.03103 -11.76006,0 -21.33793,-3.70942 -28.73391,-11.1283605 -7.39597,-7.41894 -11.09391,-16.70972 -11.09391,-27.87257 0,-11.4385 3.68646,-20.93598 11.05946,-28.49274 7.373,-7.55675 16.61784,-11.33507 27.73477,-11.33507 11.806,0 21.40683,3.77832 28.80281,11.33507 7.39598,7.55676 11.0939,17.53658 11.0939,29.93976 z m -18.88031,-14.81484 c -1.24033,-4.18034 -3.68647,-7.57968 -7.33852,-10.19812 -3.65205,-2.61845 -7.88975,-3.92767 -12.71321,-3.92767 -5.23689,0 -9.8306,1.46999 -13.78125,4.41 -2.48063,1.8375 -4.77748,5.07608 -6.89062,9.71579 z m 81.10265,-17.64 -11.64515,11.64515 c -4.7316,-4.68564 -9.02671,-7.02844 -12.88548,-7.02844 -2.11313,0 -3.76686,0.44789 -4.96125,1.34368 -1.19437,0.89578 -1.79156,2.00975 -1.79156,3.34195 0,1.01062 0.37902,1.94085 1.13696,2.7907 0.75796,0.84986 2.62991,2.00976 5.61585,3.47977 l 6.89063,3.44532 c 7.25817,3.58314 12.24233,7.23513 14.95266,10.95608 2.71033,3.72095 4.06546,8.08497 4.06546,13.09219 0,6.66097 -2.44614,12.21936 -7.33851,16.67531 -4.89237,4.4559605 -11.44988,6.6839105 -19.67274,6.6839105 -10.93317,0 -19.6612,-4.27214 -26.18437,-12.8165705 l 11.57625,-12.60984 c 2.20501,2.57252 4.78897,4.65117 7.75196,6.23601 2.96297,1.58486 5.59288,2.37727 7.88976,2.37727 2.48064,0 4.47889,-0.59721 5.99484,-1.79156 1.51595,-1.19438 2.27391,-2.57249 2.27391,-4.13438 0,-2.89406 -2.73325,-5.71921 -8.19985,-8.47547 l -6.33937,-3.16968 c -12.12755,-6.10971 -18.19125,-13.75824 -18.19125,-22.94577 0,-5.92598 2.28538,-10.99053 6.85617,-15.19384 4.5708,-4.2033 10.41629,-6.30491 17.53664,-6.30491 4.86941,0 9.45163,1.06802 13.7468,3.20413 4.29517,2.1361 7.93569,5.2024 10.92164,9.19899 z"
       id="bottom-8"
       inkscape:connector-curvature="0"
       style="fill:#ffffff;fill-rule:evenodd;stroke:none;stroke-width:1.10249996" />
  </g>
</svg>
