<?xml version="1.0" encoding="utf-8"?>
<!DOCTYPE svg PUBLIC "-//W3C//DTD SVG 1.1//EN" "http://www.w3.org/Graphics/SVG/1.1/DTD/svg11.dtd">
<svg version="1.1" id="Layer_1" xmlns="http://www.w3.org/2000/svg" xmlns:xlink="http://www.w3.org/1999/xlink" x="0px" y="0px"
	 width="410px" height="409.798px" viewBox="0 0 410 409.798" enable-background="new 0 0 410 409.798" xml:space="preserve">
<path d="M213.847,0c-0.818,0.524-1.625,1.054-2.411,1.594C193.266,11.906,181,31.414,181,53.798
	c0,26.896,17.697,49.657,42.082,57.277c0.657,0.257,1.302,0.502,1.918,0.723c0.268,0.095,0.473,0.179,0.648,0.257
	c37.912,8.403,67.306,39.452,73.25,78.231c0.725,4.731,1.102,9.578,1.102,14.512c0,52.468-42.532,95-95,95
	c-9.351,0-18.383-1.357-26.918-3.875c-7.558-2.475-14.705-5.571-21.437-9.343c-17.993-10.079-33.037-24.956-45.112-45.553
	c-18.647-31.737-25.174-66.372-19.616-103.892c7.855-53.03,32.941-97.637,75.244-133.838C72.021,21.053,0,104.508,0,204.798
	c0,113.219,91.781,205,205,205c46.124,0,88.688-15.235,122.94-40.945l-0.061,0.121l0.071,0.035
	c0.025,38.79,41.119,40.789,41.119,40.789h40.859H410v-205C410,94.544,322.96,4.635,213.847,0z"/>
</svg>
